<svg width="205" height="187" viewBox="0 0 205 187" fill="none" xmlns="http://www.w3.org/2000/svg">
<g filter="url(#filter0_f_511_75)">
<rect x="50.7034" y="58.4188" width="123.593" height="78.5811" rx="11" fill="url(#paint0_linear_511_75)" fill-opacity="0.8"/>
</g>
<g clip-path="url(#clip0_511_75)">
<rect x="44" width="327" height="295" fill="url(#paint1_linear_511_75)"/>
<g style="mix-blend-mode:soft-light" opacity="0.2">
<path opacity="0.25" d="M136.195 152.509C168.552 152.509 194.782 144.979 194.782 135.691C194.782 126.402 168.552 118.872 136.195 118.872C103.837 118.872 77.6067 126.402 77.6067 135.691C77.6067 144.979 103.837 152.509 136.195 152.509Z" fill="#042030"/>
<path d="M182.078 54.5234L136.195 73.868L90.2643 54.5234L68.2997 93.9015L136.195 122.545L204.043 93.9015L182.078 54.5234Z" fill="#4E2999"/>
<path opacity="0.45" d="M76.3038 92.2942L132.611 118.872L113.253 95.2217C113.253 95.2217 81.4692 85.7503 76.3038 92.2942Z" fill="#240F4F"/>
<path opacity="0.45" d="M196.085 92.2942L139.778 118.872L159.136 95.2217C159.09 95.2217 190.873 85.7503 196.085 92.2942Z" fill="#240F4F"/>
<path d="M136.195 122.545L68.2997 93.9015V97.6327L136.195 126.276L204.043 97.6327V93.9015L136.195 122.545Z" fill="#65D6FC"/>
<path d="M100.037 139.766L107.901 114.337L133.216 125.014L100.037 139.766Z" fill="#455EB5"/>
<path opacity="0.45" d="M102.224 132.419L133.216 125.014L107.901 114.337L102.224 132.419Z" fill="#455EB5"/>
<path d="M136.195 123.693L100.037 139.766L102.736 143.268L136.195 128.573L169.607 143.268L172.352 139.766L136.195 123.693Z" fill="#65D6FC"/>
<path d="M172.352 139.766L164.441 114.337L139.126 125.014L172.352 139.766Z" fill="#455EB5"/>
<path opacity="0.45" d="M170.119 132.419L139.126 125.014L164.441 114.337L170.119 132.419Z" fill="#455EB5"/>
<path d="M136.195 128.573C137.557 128.573 138.661 127.21 138.661 125.53C138.661 123.85 137.557 122.488 136.195 122.488C134.832 122.488 133.728 123.85 133.728 125.53C133.728 127.21 134.832 128.573 136.195 128.573Z" fill="white" fill-opacity="0.5"/>
<path d="M180.124 54.5234L136.195 81.5025L92.2653 54.5234C90.2643 57.7953 74.1631 90.9166 74.1631 90.9166C74.3493 90.9166 74.4889 90.974 74.675 90.974C115.068 95.968 126.283 111.639 130.005 115.427C133.728 119.273 136.241 118.872 136.241 118.872C136.241 118.872 138.754 119.273 142.477 115.427C146.2 111.639 157.415 95.968 197.807 90.974C197.993 90.974 198.133 90.9166 198.319 90.9166C198.226 90.9166 182.078 57.8527 180.124 54.5234Z" fill="#F5B304"/>
<path d="M198.226 90.9166C198.04 90.9166 197.9 90.974 197.714 90.974C157.322 95.968 146.107 111.639 142.384 115.427C138.661 119.273 136.148 118.872 136.148 118.872C136.148 118.872 133.635 119.273 129.912 115.427C126.189 111.639 114.974 95.968 74.582 90.974C74.3958 90.974 74.2562 90.9166 74.0701 90.9166C73.7443 91.548 74.0701 92.0072 74.0701 92.0072C114.881 96.8864 125.724 112.615 129.447 116.461C133.17 120.249 136.101 119.962 136.101 119.962C136.101 119.962 139.033 120.249 142.756 116.461C146.479 112.672 157.322 96.9438 198.133 92.0072C198.226 92.0072 198.552 91.548 198.226 90.9166Z" fill="#65D6FC"/>
<path d="M178.448 51.3663C155.972 44.7076 136.148 67.4963 136.148 67.4963C136.148 67.4963 116.324 44.7076 93.8475 51.3663C93.8475 51.3663 87.4722 63.4208 78.677 83.9135C78.677 83.9135 122.932 90.0555 136.148 112.959C149.364 90.0555 193.619 83.9135 193.619 83.9135C184.824 63.4208 178.448 51.3663 178.448 51.3663Z" fill="#D7F3FC"/>
<path d="M193.619 83.9135C193.619 83.9135 149.364 90.0555 136.148 112.959C122.979 90.0555 78.7236 83.9135 78.7236 83.9135C78.7236 83.9135 78.7236 85.7503 76.2572 89.3667C76.2572 89.3667 116.417 92.9256 131.029 113.476C134.473 118.298 136.148 117.724 136.148 117.724C136.148 117.724 137.87 118.298 141.267 113.476C155.832 92.9256 196.039 89.3667 196.039 89.3667C193.619 85.6929 193.619 83.9135 193.619 83.9135Z" fill="#A8D3E1"/>
<path d="M175.936 53.7772C175.936 53.7772 159.136 48.4961 136.148 70.4813C113.206 48.5535 96.3604 53.7772 96.3604 53.7772L85.0058 80.9859C119.535 83.9135 136.148 105.439 136.148 105.439C136.148 105.439 152.761 83.9135 187.29 80.9859L175.936 53.7772ZM136.195 102.856C136.195 102.856 120.652 83.2246 87.7049 79.3787L97.2446 54.9252C97.2446 54.9252 113.765 50.9644 136.195 71.7441C158.625 50.9644 175.144 54.9252 175.144 54.9252L184.684 79.3787C151.737 83.2246 136.195 102.856 136.195 102.856Z" fill="#65D6FC"/>
<path opacity="0.2" d="M140.429 90.9704C146.634 85.3258 166.024 72.8348 179.053 74.5568" stroke="#65D6FC" stroke-width="3" stroke-linecap="round"/>
<path opacity="0.2" d="M140.429 75.1309C145.936 69.8123 160.253 59.3916 173.469 60.257" stroke="#65D6FC" stroke-width="3" stroke-linecap="round"/>
<path opacity="0.2" d="M140.429 83.1672C146.401 77.4396 161.928 66.2172 176.261 67.1492" stroke="#65D6FC" stroke-width="3" stroke-linecap="round"/>
<path opacity="0.2" d="M132.518 90.9704C126.314 85.3258 106.924 72.8348 93.8941 74.5568" stroke="#65D6FC" stroke-width="3" stroke-linecap="round"/>
<path opacity="0.2" d="M132.518 75.1309C127.012 69.8123 112.694 59.3916 99.4783 60.257" stroke="#65D6FC" stroke-width="3" stroke-linecap="round"/>
<path opacity="0.2" d="M132.518 83.1672C126.546 77.4396 111.019 66.2172 96.6862 67.1492" stroke="#65D6FC" stroke-width="3" stroke-linecap="round"/>
<path d="M136.195 67.4963C136.195 67.4963 136.66 65.4873 137.544 66.0613C137.544 66.0613 136.986 98.6085 137.916 111.294C138.149 114.452 140.383 118.757 141.267 120.364H140.103L139.778 121.684C139.778 121.684 136.334 114.509 136.195 111.696C135.497 99.0677 135.869 70.5387 136.195 67.4963Z" fill="#54DAF5"/>
</g>
</g>
<path d="M142.7 75.2C142.7 75.2 142.9 72.5999 145.4 72.2999C142.9 71.9999 142.7 69.4 142.7 69.4C142.7 69.4 142.5 71.9999 140 72.2999C142.5 72.4999 142.7 75.2 142.7 75.2Z" fill="#FFD08A" fill-opacity="0.5"/>
<path d="M105.7 102.2C105.7 102.2 105.9 99.5999 108.4 99.2999C105.9 98.9999 105.7 96.4 105.7 96.4C105.7 96.4 105.5 98.9999 103 99.2999C105.5 99.4999 105.7 102.2 105.7 102.2Z" fill="#FFD08A" fill-opacity="0.5"/>
<path d="M71.2999 39.2C71.2999 39.2 71.7999 32.2 78.3999 31.6C71.7999 30.9 71.2999 23.9999 71.2999 23.9999C71.2999 23.9999 70.7999 31 64.1999 31.6C70.7999 32.2 71.2999 39.2 71.2999 39.2Z" fill="#FFD08A" fill-opacity="0.5"/>
<path d="M165.3 91.2C165.3 91.2 165.8 84.1999 172.4 83.5999C165.8 82.8999 165.3 75.9999 165.3 75.9999C165.3 75.9999 164.8 82.9999 158.2 83.5999C164.8 84.1999 165.3 91.2 165.3 91.2Z" fill="#FFD08A" fill-opacity="0.5"/>
<path d="M69.1999 113.2C69.1999 113.2 69.5999 108.1 74.3999 107.6C69.5999 107.1 69.1999 102 69.1999 102C69.1999 102 68.7999 107.1 63.9999 107.6C68.7999 108.2 69.1999 113.2 69.1999 113.2Z" fill="#FFD08A" fill-opacity="0.5"/>
<defs>
<filter id="filter0_f_511_75" x="0.703369" y="8.41876" width="223.593" height="178.581" filterUnits="userSpaceOnUse" color-interpolation-filters="sRGB">
<feFlood flood-opacity="0" result="BackgroundImageFix"/>
<feBlend mode="normal" in="SourceGraphic" in2="BackgroundImageFix" result="shape"/>
<feGaussianBlur stdDeviation="25" result="effect1_foregroundBlur_511_75"/>
</filter>
<linearGradient id="paint0_linear_511_75" x1="50.7034" y1="58.4188" x2="121.862" y2="170.338" gradientUnits="userSpaceOnUse">
<stop stop-color="#65D6FC"/>
<stop offset="1" stop-color="#455EB5"/>
</linearGradient>
<linearGradient id="paint1_linear_511_75" x1="44" y1="0" x2="337.443" y2="325.274" gradientUnits="userSpaceOnUse">
<stop stop-color="#65D6FC"/>
<stop offset="1" stop-color="#455EB5"/>
</linearGradient>
<clipPath id="clip0_511_75">
<path d="M44 11C44 4.92487 48.9249 0 55 0L170 0C176.075 0 181 4.92487 181 11V121.864C181 127.939 176.075 132.864 170 132.864H55C48.9249 132.864 44 127.939 44 121.864L44 11Z" fill="white"/>
</clipPath>
</defs>
</svg>
