<svg width="254" height="225" viewBox="0 0 254 225" fill="none" xmlns="http://www.w3.org/2000/svg">
<path d="M44.8213 195.1C43.7813 195.1 42.8346 194.9 41.9813 194.5C41.1413 194.087 40.4146 193.54 39.8013 192.86C39.2013 192.18 38.7346 191.413 38.4013 190.56C38.0679 189.693 37.9013 188.807 37.9013 187.9C37.9013 186.953 38.0746 186.053 38.4213 185.2C38.7813 184.333 39.2679 183.567 39.8813 182.9C40.5079 182.22 41.2413 181.687 42.0813 181.3C42.9346 180.9 43.8679 180.7 44.8813 180.7C45.9079 180.7 46.8413 180.907 47.6813 181.32C48.5346 181.733 49.2613 182.287 49.8613 182.98C50.4613 183.673 50.9279 184.447 51.2613 185.3C51.5946 186.153 51.7613 187.033 51.7613 187.94C51.7613 188.873 51.5879 189.773 51.2413 190.64C50.8946 191.493 50.4079 192.26 49.7812 192.94C49.1679 193.607 48.4346 194.133 47.5813 194.52C46.7413 194.907 45.8213 195.1 44.8213 195.1ZM44.8413 192.66C45.5079 192.66 46.1013 192.527 46.6213 192.26C47.1413 191.98 47.5746 191.613 47.9213 191.16C48.2679 190.693 48.5279 190.18 48.7013 189.62C48.8879 189.047 48.9813 188.473 48.9813 187.9C48.9813 187.287 48.8813 186.693 48.6813 186.12C48.4946 185.547 48.2213 185.04 47.8613 184.6C47.5146 184.16 47.0813 183.807 46.5613 183.54C46.0546 183.273 45.4813 183.14 44.8413 183.14C44.1613 183.14 43.5613 183.28 43.0413 183.56C42.5346 183.827 42.1079 184.193 41.7613 184.66C41.4146 185.113 41.1479 185.62 40.9613 186.18C40.7879 186.74 40.7013 187.313 40.7013 187.9C40.7013 188.513 40.7946 189.107 40.9813 189.68C41.1679 190.253 41.4346 190.76 41.7813 191.2C42.1413 191.64 42.5746 191.993 43.0813 192.26C43.6013 192.527 44.1879 192.66 44.8413 192.66ZM44.5613 189.74H47.1613L51.8413 195H49.2413L44.5613 189.74ZM53.4989 191.08V184.52H56.1789V190.5C56.1789 191.3 56.3256 191.907 56.6189 192.32C56.9122 192.72 57.3456 192.92 57.9189 192.92C58.2656 192.92 58.6056 192.853 58.9389 192.72C59.2856 192.573 59.5989 192.36 59.8789 192.08C60.1722 191.8 60.4189 191.447 60.6189 191.02V184.52H63.2989V192C63.2989 192.28 63.3456 192.48 63.4389 192.6C63.5456 192.72 63.7122 192.793 63.9389 192.82V195C63.6722 195.04 63.4456 195.067 63.2589 195.08C63.0856 195.107 62.9256 195.12 62.7789 195.12C62.2989 195.12 61.9056 195.013 61.5989 194.8C61.3056 194.573 61.1322 194.267 61.0789 193.88L61.0189 193.04C60.5522 193.747 59.9522 194.287 59.2189 194.66C58.4856 195.02 57.6789 195.2 56.7989 195.2C55.7189 195.2 54.8989 194.853 54.3389 194.16C53.7789 193.453 53.4989 192.427 53.4989 191.08ZM72.2022 186.84C71.3889 186.84 70.6622 187 70.0222 187.32C69.3822 187.627 68.9222 188.073 68.6422 188.66V195H65.9622V184.52H68.4222V186.76C68.7955 186.04 69.2689 185.473 69.8422 185.06C70.4155 184.647 71.0222 184.42 71.6622 184.38C71.8089 184.38 71.9222 184.38 72.0022 184.38C72.0822 184.38 72.1489 184.387 72.2022 184.4V186.84ZM72.918 191.9C72.918 191.22 73.1046 190.627 73.478 190.12C73.8646 189.6 74.398 189.2 75.078 188.92C75.758 188.64 76.538 188.5 77.418 188.5C77.858 188.5 78.3046 188.533 78.758 188.6C79.2113 188.667 79.6046 188.773 79.938 188.92V188.36C79.938 187.693 79.738 187.18 79.338 186.82C78.9513 186.46 78.3713 186.28 77.598 186.28C77.0246 186.28 76.478 186.38 75.958 186.58C75.438 186.78 74.8913 187.073 74.318 187.46L73.458 185.7C74.1513 185.247 74.858 184.907 75.578 184.68C76.3113 184.453 77.078 184.34 77.878 184.34C79.3713 184.34 80.5313 184.713 81.358 185.46C82.198 186.207 82.618 187.273 82.618 188.66V192C82.618 192.28 82.6646 192.48 82.758 192.6C82.8646 192.72 83.0313 192.793 83.258 192.82V195C83.018 195.04 82.798 195.073 82.598 195.1C82.4113 195.127 82.2513 195.14 82.118 195.14C81.5846 195.14 81.178 195.02 80.898 194.78C80.6313 194.54 80.4646 194.247 80.398 193.9L80.338 193.36C79.8846 193.947 79.318 194.4 78.638 194.72C77.958 195.04 77.2646 195.2 76.558 195.2C75.8646 195.2 75.238 195.06 74.678 194.78C74.1313 194.487 73.698 194.093 73.378 193.6C73.0713 193.093 72.918 192.527 72.918 191.9ZM79.438 192.44C79.5846 192.28 79.7046 192.12 79.798 191.96C79.8913 191.8 79.938 191.653 79.938 191.52V190.46C79.618 190.327 79.2713 190.227 78.898 190.16C78.5246 190.08 78.1713 190.04 77.838 190.04C77.1446 190.04 76.5713 190.193 76.118 190.5C75.678 190.793 75.458 191.187 75.458 191.68C75.458 191.947 75.5313 192.2 75.678 192.44C75.8246 192.68 76.038 192.873 76.318 193.02C76.598 193.167 76.9313 193.24 77.318 193.24C77.718 193.24 78.1113 193.167 78.498 193.02C78.8846 192.86 79.198 192.667 79.438 192.44ZM94.8623 195H92.1823V189.12C92.1823 188.28 92.0357 187.667 91.7423 187.28C91.449 186.893 91.0423 186.7 90.5223 186.7C90.1623 186.7 89.7957 186.793 89.4223 186.98C89.0623 187.167 88.7357 187.427 88.4423 187.76C88.149 188.08 87.9357 188.453 87.8023 188.88V195H85.1223V184.52H87.5423V186.46C87.809 186.007 88.149 185.627 88.5623 185.32C88.9757 185 89.449 184.76 89.9823 184.6C90.529 184.427 91.1023 184.34 91.7023 184.34C92.3557 184.34 92.889 184.46 93.3023 184.7C93.729 184.927 94.049 185.24 94.2623 185.64C94.489 186.027 94.6423 186.467 94.7223 186.96C94.8157 187.453 94.8623 187.953 94.8623 188.46V195ZM102.257 195V180.82H105.017V187.56L110.977 180.8H114.017L108.577 187.1L114.357 195H111.237L106.817 188.88L105.017 190.76V195H102.257ZM114.578 191.9C114.578 191.22 114.765 190.627 115.138 190.12C115.525 189.6 116.058 189.2 116.738 188.92C117.418 188.64 118.198 188.5 119.078 188.5C119.518 188.5 119.965 188.533 120.418 188.6C120.871 188.667 121.265 188.773 121.598 188.92V188.36C121.598 187.693 121.398 187.18 120.998 186.82C120.611 186.46 120.031 186.28 119.258 186.28C118.685 186.28 118.138 186.38 117.618 186.58C117.098 186.78 116.551 187.073 115.978 187.46L115.118 185.7C115.811 185.247 116.518 184.907 117.238 184.68C117.971 184.453 118.738 184.34 119.538 184.34C121.031 184.34 122.191 184.713 123.018 185.46C123.858 186.207 124.278 187.273 124.278 188.66V192C124.278 192.28 124.325 192.48 124.418 192.6C124.525 192.72 124.691 192.793 124.918 192.82V195C124.678 195.04 124.458 195.073 124.258 195.1C124.071 195.127 123.911 195.14 123.778 195.14C123.245 195.14 122.838 195.02 122.558 194.78C122.291 194.54 122.125 194.247 122.058 193.9L121.998 193.36C121.545 193.947 120.978 194.4 120.298 194.72C119.618 195.04 118.925 195.2 118.218 195.2C117.525 195.2 116.898 195.06 116.338 194.78C115.791 194.487 115.358 194.093 115.038 193.6C114.731 193.093 114.578 192.527 114.578 191.9ZM121.098 192.44C121.245 192.28 121.365 192.12 121.458 191.96C121.551 191.8 121.598 191.653 121.598 191.52V190.46C121.278 190.327 120.931 190.227 120.558 190.16C120.185 190.08 119.831 190.04 119.498 190.04C118.805 190.04 118.231 190.193 117.778 190.5C117.338 190.793 117.118 191.187 117.118 191.68C117.118 191.947 117.191 192.2 117.338 192.44C117.485 192.68 117.698 192.873 117.978 193.02C118.258 193.167 118.591 193.24 118.978 193.24C119.378 193.24 119.771 193.167 120.158 193.02C120.545 192.86 120.858 192.667 121.098 192.44ZM133.023 186.84C132.209 186.84 131.483 187 130.842 187.32C130.203 187.627 129.743 188.073 129.463 188.66V195H126.783V184.52H129.243V186.76C129.616 186.04 130.089 185.473 130.663 185.06C131.236 184.647 131.843 184.42 132.483 184.38C132.629 184.38 132.743 184.38 132.823 184.38C132.903 184.38 132.969 184.387 133.023 184.4V186.84ZM139.24 195.2C138.4 195.2 137.64 195.06 136.96 194.78C136.28 194.487 135.7 194.093 135.22 193.6C134.74 193.093 134.367 192.52 134.1 191.88C133.847 191.227 133.72 190.54 133.72 189.82C133.72 188.82 133.94 187.907 134.38 187.08C134.833 186.253 135.473 185.593 136.3 185.1C137.14 184.593 138.127 184.34 139.26 184.34C140.407 184.34 141.387 184.593 142.2 185.1C143.013 185.593 143.633 186.253 144.06 187.08C144.5 187.893 144.72 188.773 144.72 189.72C144.72 189.88 144.713 190.047 144.7 190.22C144.687 190.38 144.673 190.513 144.66 190.62H136.56C136.613 191.153 136.767 191.62 137.02 192.02C137.287 192.42 137.62 192.727 138.02 192.94C138.433 193.14 138.873 193.24 139.34 193.24C139.873 193.24 140.373 193.113 140.84 192.86C141.32 192.593 141.647 192.247 141.82 191.82L144.12 192.46C143.867 192.993 143.5 193.467 143.02 193.88C142.553 194.293 142 194.62 141.36 194.86C140.72 195.087 140.013 195.2 139.24 195.2ZM136.5 188.92H141.98C141.927 188.387 141.773 187.927 141.52 187.54C141.28 187.14 140.96 186.833 140.56 186.62C140.16 186.393 139.713 186.28 139.22 186.28C138.74 186.28 138.3 186.393 137.9 186.62C137.513 186.833 137.193 187.14 136.94 187.54C136.7 187.927 136.553 188.387 136.5 188.92ZM151.213 195.2C150.373 195.2 149.613 195.06 148.933 194.78C148.253 194.487 147.673 194.093 147.193 193.6C146.713 193.093 146.339 192.52 146.073 191.88C145.819 191.227 145.693 190.54 145.693 189.82C145.693 188.82 145.913 187.907 146.353 187.08C146.806 186.253 147.446 185.593 148.273 185.1C149.113 184.593 150.099 184.34 151.233 184.34C152.379 184.34 153.359 184.593 154.173 185.1C154.986 185.593 155.606 186.253 156.033 187.08C156.473 187.893 156.693 188.773 156.693 189.72C156.693 189.88 156.686 190.047 156.673 190.22C156.659 190.38 156.646 190.513 156.633 190.62H148.533C148.586 191.153 148.739 191.62 148.993 192.02C149.259 192.42 149.593 192.727 149.993 192.94C150.406 193.14 150.846 193.24 151.313 193.24C151.846 193.24 152.346 193.113 152.813 192.86C153.293 192.593 153.619 192.247 153.793 191.82L156.093 192.46C155.839 192.993 155.473 193.467 154.993 193.88C154.526 194.293 153.973 194.62 153.333 194.86C152.693 195.087 151.986 195.2 151.213 195.2ZM148.473 188.92H153.953C153.899 188.387 153.746 187.927 153.493 187.54C153.253 187.14 152.933 186.833 152.533 186.62C152.133 186.393 151.686 186.28 151.193 186.28C150.713 186.28 150.273 186.393 149.873 186.62C149.486 186.833 149.166 187.14 148.913 187.54C148.673 187.927 148.526 188.387 148.473 188.92ZM174.605 195H171.925V189.12C171.925 188.293 171.779 187.687 171.485 187.3C171.205 186.9 170.812 186.7 170.305 186.7C169.785 186.7 169.285 186.907 168.805 187.32C168.339 187.72 168.005 188.247 167.805 188.9V195H165.125V189.12C165.125 188.28 164.979 187.667 164.685 187.28C164.405 186.893 164.012 186.7 163.505 186.7C162.985 186.7 162.485 186.9 162.005 187.3C161.539 187.7 161.205 188.227 161.005 188.88V195H158.325V184.52H160.745V186.46C161.145 185.78 161.679 185.26 162.345 184.9C163.012 184.527 163.779 184.34 164.645 184.34C165.512 184.34 166.185 184.553 166.665 184.98C167.159 185.407 167.472 185.933 167.605 186.56C168.032 185.84 168.572 185.293 169.225 184.92C169.892 184.533 170.639 184.34 171.465 184.34C172.119 184.34 172.645 184.46 173.045 184.7C173.459 184.927 173.779 185.24 174.005 185.64C174.232 186.027 174.385 186.467 174.465 186.96C174.559 187.453 174.605 187.953 174.605 188.46V195Z" fill="white"/>
<path d="M39.6446 209.835H40.5026L41.8026 213.111L43.1156 209.835H43.9866L42.3746 213.774L44.1426 217.947L47.4836 209.77H48.4716L44.5586 219H43.7526L41.8156 214.437L39.8656 219H39.0726L35.1726 209.77H36.1476L39.5016 217.947L41.2566 213.774L39.6446 209.835ZM49.5883 219V212.227H50.4723V219H49.5883ZM49.5883 210.81V209.51H50.4723V210.81H49.5883ZM55.6693 218.675C55.6 218.701 55.4917 218.749 55.3443 218.818C55.197 218.887 55.0193 218.948 54.8113 219C54.6033 219.052 54.378 219.078 54.1353 219.078C53.884 219.078 53.6457 219.03 53.4203 218.935C53.2037 218.84 53.0303 218.697 52.9003 218.506C52.7703 218.307 52.7053 218.064 52.7053 217.778V212.929H51.7693V212.227H52.7053V209.939H53.5893V212.227H55.1493V212.929H53.5893V217.531C53.6067 217.774 53.6933 217.956 53.8493 218.077C54.014 218.198 54.2003 218.259 54.4083 218.259C54.651 218.259 54.872 218.22 55.0713 218.142C55.2707 218.055 55.392 217.995 55.4353 217.96L55.6693 218.675ZM62.4678 219H61.5838V215.217C61.5838 214.454 61.4495 213.882 61.1808 213.501C60.9122 213.111 60.5265 212.916 60.0238 212.916C59.6945 212.916 59.3652 213.003 59.0358 213.176C58.7152 213.341 58.4292 213.57 58.1778 213.865C57.9352 214.151 57.7618 214.48 57.6578 214.853V219H56.7738V209.51H57.6578V213.761C57.9265 213.258 58.2992 212.86 58.7758 212.565C59.2612 212.262 59.7768 212.11 60.3228 212.11C60.7128 212.11 61.0422 212.179 61.3108 212.318C61.5882 212.457 61.8092 212.66 61.9738 212.929C62.1472 213.189 62.2728 213.497 62.3508 213.852C62.4288 214.199 62.4678 214.593 62.4678 215.035V219ZM76.0254 219V211.486L72.6844 217.323H72.1124L68.7584 211.486V219H67.8484V209.77H68.7844L72.3854 216.088L76.0124 209.77H76.9354V219H76.0254ZM79.0018 216.205V212.227H79.8858V216.049C79.8858 216.82 80.0158 217.397 80.2758 217.778C80.5445 218.159 80.9388 218.35 81.4588 218.35C81.8055 218.35 82.1391 218.276 82.4598 218.129C82.7891 217.973 83.0795 217.756 83.3308 217.479C83.5821 217.193 83.7728 216.864 83.9028 216.491V212.227H84.7868V217.934C84.7868 218.055 84.8128 218.146 84.8648 218.207C84.9168 218.259 84.9948 218.289 85.0988 218.298V219C84.9948 219.009 84.9125 219.013 84.8518 219.013C84.7911 219.022 84.7348 219.026 84.6828 219.026C84.5095 219.009 84.3578 218.939 84.2278 218.818C84.1065 218.697 84.0415 218.549 84.0328 218.376L84.0068 217.466C83.7121 217.986 83.3091 218.393 82.7978 218.688C82.2951 218.983 81.7491 219.13 81.1598 219.13C80.4491 219.13 79.9118 218.883 79.5478 218.389C79.1838 217.895 79.0018 217.167 79.0018 216.205ZM86.8245 209.51H87.7085V217.466C87.7085 217.804 87.7692 218.025 87.8905 218.129C88.0119 218.233 88.1592 218.285 88.3325 218.285C88.4885 218.285 88.6445 218.268 88.8005 218.233C88.9565 218.198 89.0909 218.164 89.2035 218.129L89.3595 218.844C89.1949 218.913 88.9912 218.97 88.7485 219.013C88.5145 219.056 88.3109 219.078 88.1375 219.078C87.7389 219.078 87.4182 218.961 87.1755 218.727C86.9415 218.493 86.8245 218.172 86.8245 217.765V209.51ZM93.5775 218.675C93.5082 218.701 93.3999 218.749 93.2525 218.818C93.1052 218.887 92.9275 218.948 92.7195 219C92.5115 219.052 92.2862 219.078 92.0435 219.078C91.7922 219.078 91.5539 219.03 91.3285 218.935C91.1119 218.84 90.9385 218.697 90.8085 218.506C90.6785 218.307 90.6135 218.064 90.6135 217.778V212.929H89.6775V212.227H90.6135V209.939H91.4975V212.227H93.0575V212.929H91.4975V217.531C91.5149 217.774 91.6015 217.956 91.7575 218.077C91.9222 218.198 92.1085 218.259 92.3165 218.259C92.5592 218.259 92.7802 218.22 92.9795 218.142C93.1789 218.055 93.3002 217.995 93.3435 217.96L93.5775 218.675ZM94.682 219V212.227H95.566V219H94.682ZM94.682 210.81V209.51H95.566V210.81H94.682ZM100.971 219.13C100.408 219.13 99.9008 218.983 99.4501 218.688C99.0081 218.393 98.6571 218.029 98.3971 217.596V221.769H97.5131V212.227H98.3061V213.54C98.5748 213.115 98.9344 212.773 99.3851 212.513C99.8358 212.244 100.317 212.11 100.828 212.11C101.296 212.11 101.725 212.21 102.115 212.409C102.505 212.6 102.843 212.86 103.129 213.189C103.415 213.518 103.636 213.895 103.792 214.32C103.957 214.736 104.039 215.169 104.039 215.62C104.039 216.253 103.909 216.838 103.649 217.375C103.398 217.904 103.042 218.328 102.583 218.649C102.124 218.97 101.586 219.13 100.971 219.13ZM100.724 218.35C101.097 218.35 101.43 218.276 101.725 218.129C102.02 217.973 102.271 217.765 102.479 217.505C102.696 217.245 102.86 216.955 102.973 216.634C103.086 216.305 103.142 215.967 103.142 215.62C103.142 215.256 103.077 214.909 102.947 214.58C102.826 214.251 102.648 213.96 102.414 213.709C102.18 213.458 101.911 213.258 101.608 213.111C101.305 212.964 100.975 212.89 100.62 212.89C100.395 212.89 100.161 212.933 99.9181 213.02C99.6754 213.107 99.4414 213.232 99.2161 213.397C98.9994 213.553 98.8174 213.731 98.6701 213.93C98.5228 214.129 98.4318 214.342 98.3971 214.567V216.647C98.5358 216.968 98.7221 217.258 98.9561 217.518C99.1901 217.769 99.4588 217.973 99.7621 218.129C100.074 218.276 100.395 218.35 100.724 218.35ZM105.576 209.51H106.46V217.466C106.46 217.804 106.52 218.025 106.642 218.129C106.763 218.233 106.91 218.285 107.084 218.285C107.24 218.285 107.396 218.268 107.552 218.233C107.708 218.198 107.842 218.164 107.955 218.129L108.111 218.844C107.946 218.913 107.742 218.97 107.5 219.013C107.266 219.056 107.062 219.078 106.889 219.078C106.49 219.078 106.169 218.961 105.927 218.727C105.693 218.493 105.576 218.172 105.576 217.765V209.51ZM112.004 219.13C111.518 219.13 111.068 219.039 110.652 218.857C110.236 218.666 109.876 218.411 109.573 218.09C109.269 217.761 109.031 217.384 108.858 216.959C108.693 216.534 108.611 216.079 108.611 215.594C108.611 214.961 108.754 214.381 109.04 213.852C109.334 213.323 109.737 212.903 110.249 212.591C110.76 212.27 111.341 212.11 111.991 212.11C112.658 212.11 113.239 212.27 113.733 212.591C114.235 212.912 114.63 213.336 114.916 213.865C115.202 214.385 115.345 214.957 115.345 215.581C115.345 215.65 115.345 215.72 115.345 215.789C115.345 215.85 115.34 215.897 115.332 215.932H109.534C109.577 216.417 109.711 216.851 109.937 217.232C110.171 217.605 110.47 217.904 110.834 218.129C111.206 218.346 111.609 218.454 112.043 218.454C112.485 218.454 112.901 218.341 113.291 218.116C113.689 217.891 113.967 217.596 114.123 217.232L114.89 217.44C114.751 217.761 114.539 218.051 114.253 218.311C113.967 218.571 113.629 218.775 113.239 218.922C112.857 219.061 112.446 219.13 112.004 219.13ZM109.508 215.295H114.513C114.478 214.801 114.344 214.368 114.11 213.995C113.884 213.622 113.585 213.332 113.213 213.124C112.849 212.907 112.446 212.799 112.004 212.799C111.562 212.799 111.159 212.907 110.795 213.124C110.431 213.332 110.132 213.627 109.898 214.008C109.672 214.381 109.542 214.81 109.508 215.295ZM126.375 210.576H123.086V219H122.176V210.576H118.887V209.77H126.375V210.576ZM129.788 213.007C129.198 213.024 128.678 213.189 128.228 213.501C127.786 213.813 127.474 214.242 127.292 214.788V219H126.408V212.227H127.24V213.852C127.474 213.375 127.781 212.99 128.163 212.695C128.553 212.4 128.964 212.236 129.398 212.201C129.484 212.192 129.558 212.188 129.619 212.188C129.688 212.188 129.744 212.192 129.788 212.201V213.007ZM130.394 217.05C130.394 216.625 130.515 216.261 130.758 215.958C131.001 215.646 131.334 215.408 131.759 215.243C132.192 215.07 132.691 214.983 133.254 214.983C133.583 214.983 133.926 215.009 134.281 215.061C134.636 215.113 134.953 215.191 135.23 215.295V214.723C135.23 214.151 135.061 213.696 134.723 213.358C134.385 213.02 133.917 212.851 133.319 212.851C132.955 212.851 132.595 212.92 132.24 213.059C131.893 213.189 131.529 213.384 131.148 213.644L130.81 213.02C131.252 212.717 131.685 212.491 132.11 212.344C132.535 212.188 132.968 212.11 133.41 212.11C134.242 212.11 134.901 212.348 135.386 212.825C135.871 213.302 136.114 213.96 136.114 214.801V217.934C136.114 218.055 136.14 218.146 136.192 218.207C136.244 218.259 136.326 218.289 136.439 218.298V219C136.344 219.009 136.261 219.017 136.192 219.026C136.123 219.035 136.071 219.035 136.036 219.026C135.819 219.017 135.655 218.948 135.542 218.818C135.429 218.688 135.369 218.549 135.36 218.402L135.347 217.908C135.044 218.298 134.649 218.601 134.164 218.818C133.679 219.026 133.185 219.13 132.682 219.13C132.249 219.13 131.854 219.039 131.499 218.857C131.152 218.666 130.879 218.415 130.68 218.103C130.489 217.782 130.394 217.431 130.394 217.05ZM134.931 217.57C135.026 217.449 135.1 217.332 135.152 217.219C135.204 217.106 135.23 217.007 135.23 216.92V215.932C134.935 215.819 134.628 215.733 134.307 215.672C133.995 215.611 133.679 215.581 133.358 215.581C132.725 215.581 132.214 215.707 131.824 215.958C131.434 216.209 131.239 216.552 131.239 216.985C131.239 217.236 131.304 217.475 131.434 217.7C131.564 217.917 131.755 218.099 132.006 218.246C132.257 218.385 132.552 218.454 132.89 218.454C133.315 218.454 133.709 218.372 134.073 218.207C134.446 218.042 134.732 217.83 134.931 217.57ZM143.718 219H142.834V215.217C142.834 214.42 142.717 213.839 142.483 213.475C142.249 213.102 141.88 212.916 141.378 212.916C141.031 212.916 140.689 213.003 140.351 213.176C140.013 213.341 139.714 213.57 139.454 213.865C139.202 214.151 139.02 214.48 138.908 214.853V219H138.024V212.227H138.83V213.761C139.012 213.432 139.25 213.146 139.545 212.903C139.839 212.652 140.173 212.457 140.546 212.318C140.918 212.179 141.304 212.11 141.703 212.11C142.075 212.11 142.392 212.179 142.652 212.318C142.912 212.457 143.12 212.656 143.276 212.916C143.432 213.167 143.544 213.475 143.614 213.839C143.683 214.194 143.718 214.593 143.718 215.035V219ZM147.826 219.13C147.271 219.13 146.756 219.039 146.279 218.857C145.802 218.675 145.391 218.398 145.044 218.025L145.408 217.401C145.789 217.756 146.171 218.016 146.552 218.181C146.942 218.337 147.354 218.415 147.787 218.415C148.316 218.415 148.745 218.311 149.074 218.103C149.403 217.886 149.568 217.579 149.568 217.18C149.568 216.911 149.486 216.708 149.321 216.569C149.165 216.422 148.935 216.305 148.632 216.218C148.337 216.123 147.982 216.023 147.566 215.919C147.098 215.789 146.704 215.655 146.383 215.516C146.071 215.369 145.833 215.187 145.668 214.97C145.512 214.745 145.434 214.454 145.434 214.099C145.434 213.657 145.542 213.293 145.759 213.007C145.984 212.712 146.288 212.491 146.669 212.344C147.059 212.188 147.492 212.11 147.969 212.11C148.489 212.11 148.948 212.192 149.347 212.357C149.746 212.522 150.071 212.751 150.322 213.046L149.893 213.644C149.65 213.367 149.36 213.163 149.022 213.033C148.693 212.894 148.324 212.825 147.917 212.825C147.64 212.825 147.375 212.864 147.124 212.942C146.873 213.011 146.665 213.133 146.5 213.306C146.344 213.471 146.266 213.7 146.266 213.995C146.266 214.238 146.327 214.428 146.448 214.567C146.569 214.697 146.751 214.81 146.994 214.905C147.237 214.992 147.536 215.087 147.891 215.191C148.402 215.33 148.849 215.473 149.23 215.62C149.611 215.759 149.906 215.941 150.114 216.166C150.322 216.391 150.426 216.708 150.426 217.115C150.426 217.748 150.188 218.242 149.711 218.597C149.234 218.952 148.606 219.13 147.826 219.13ZM151.926 209.51H152.81V217.466C152.81 217.804 152.871 218.025 152.992 218.129C153.113 218.233 153.261 218.285 153.434 218.285C153.59 218.285 153.746 218.268 153.902 218.233C154.058 218.198 154.192 218.164 154.305 218.129L154.461 218.844C154.296 218.913 154.093 218.97 153.85 219.013C153.616 219.056 153.412 219.078 153.239 219.078C152.84 219.078 152.52 218.961 152.277 218.727C152.043 218.493 151.926 218.172 151.926 217.765V209.51ZM154.883 217.05C154.883 216.625 155.004 216.261 155.247 215.958C155.49 215.646 155.823 215.408 156.248 215.243C156.681 215.07 157.18 214.983 157.743 214.983C158.072 214.983 158.415 215.009 158.77 215.061C159.125 215.113 159.442 215.191 159.719 215.295V214.723C159.719 214.151 159.55 213.696 159.212 213.358C158.874 213.02 158.406 212.851 157.808 212.851C157.444 212.851 157.084 212.92 156.729 213.059C156.382 213.189 156.018 213.384 155.637 213.644L155.299 213.02C155.741 212.717 156.174 212.491 156.599 212.344C157.024 212.188 157.457 212.11 157.899 212.11C158.731 212.11 159.39 212.348 159.875 212.825C160.36 213.302 160.603 213.96 160.603 214.801V217.934C160.603 218.055 160.629 218.146 160.681 218.207C160.733 218.259 160.815 218.289 160.928 218.298V219C160.833 219.009 160.75 219.017 160.681 219.026C160.612 219.035 160.56 219.035 160.525 219.026C160.308 219.017 160.144 218.948 160.031 218.818C159.918 218.688 159.858 218.549 159.849 218.402L159.836 217.908C159.533 218.298 159.138 218.601 158.653 218.818C158.168 219.026 157.674 219.13 157.171 219.13C156.738 219.13 156.343 219.039 155.988 218.857C155.641 218.666 155.368 218.415 155.169 218.103C154.978 217.782 154.883 217.431 154.883 217.05ZM159.42 217.57C159.515 217.449 159.589 217.332 159.641 217.219C159.693 217.106 159.719 217.007 159.719 216.92V215.932C159.424 215.819 159.117 215.733 158.796 215.672C158.484 215.611 158.168 215.581 157.847 215.581C157.214 215.581 156.703 215.707 156.313 215.958C155.923 216.209 155.728 216.552 155.728 216.985C155.728 217.236 155.793 217.475 155.923 217.7C156.053 217.917 156.244 218.099 156.495 218.246C156.746 218.385 157.041 218.454 157.379 218.454C157.804 218.454 158.198 218.372 158.562 218.207C158.935 218.042 159.221 217.83 159.42 217.57ZM165.712 218.675C165.643 218.701 165.535 218.749 165.387 218.818C165.24 218.887 165.062 218.948 164.854 219C164.646 219.052 164.421 219.078 164.178 219.078C163.927 219.078 163.689 219.03 163.463 218.935C163.247 218.84 163.073 218.697 162.943 218.506C162.813 218.307 162.748 218.064 162.748 217.778V212.929H161.812V212.227H162.748V209.939H163.632V212.227H165.192V212.929H163.632V217.531C163.65 217.774 163.736 217.956 163.892 218.077C164.057 218.198 164.243 218.259 164.451 218.259C164.694 218.259 164.915 218.22 165.114 218.142C165.314 218.055 165.435 217.995 165.478 217.96L165.712 218.675ZM166.817 219V212.227H167.701V219H166.817ZM166.817 210.81V209.51H167.701V210.81H166.817ZM172.534 219.13C172.049 219.13 171.598 219.039 171.182 218.857C170.775 218.666 170.419 218.411 170.116 218.09C169.821 217.761 169.592 217.388 169.427 216.972C169.262 216.547 169.18 216.101 169.18 215.633C169.18 215.148 169.262 214.697 169.427 214.281C169.592 213.856 169.826 213.484 170.129 213.163C170.432 212.834 170.788 212.578 171.195 212.396C171.611 212.205 172.062 212.11 172.547 212.11C173.032 212.11 173.479 212.205 173.886 212.396C174.293 212.578 174.649 212.834 174.952 213.163C175.255 213.484 175.489 213.856 175.654 214.281C175.819 214.697 175.901 215.148 175.901 215.633C175.901 216.101 175.819 216.547 175.654 216.972C175.489 217.388 175.255 217.761 174.952 218.09C174.657 218.411 174.302 218.666 173.886 218.857C173.479 219.039 173.028 219.13 172.534 219.13ZM170.077 215.646C170.077 216.149 170.185 216.608 170.402 217.024C170.627 217.431 170.926 217.756 171.299 217.999C171.672 218.233 172.083 218.35 172.534 218.35C172.985 218.35 173.396 218.229 173.769 217.986C174.142 217.743 174.441 217.414 174.666 216.998C174.891 216.573 175.004 216.114 175.004 215.62C175.004 215.117 174.891 214.658 174.666 214.242C174.441 213.826 174.142 213.497 173.769 213.254C173.396 213.011 172.985 212.89 172.534 212.89C172.083 212.89 171.672 213.016 171.299 213.267C170.935 213.518 170.64 213.852 170.415 214.268C170.19 214.675 170.077 215.135 170.077 215.646ZM183.073 219H182.189V215.217C182.189 214.42 182.072 213.839 181.838 213.475C181.604 213.102 181.236 212.916 180.733 212.916C180.387 212.916 180.044 213.003 179.706 213.176C179.368 213.341 179.069 213.57 178.809 213.865C178.558 214.151 178.376 214.48 178.263 214.853V219H177.379V212.227H178.185V213.761C178.367 213.432 178.606 213.146 178.9 212.903C179.195 212.652 179.529 212.457 179.901 212.318C180.274 212.179 180.66 212.11 181.058 212.11C181.431 212.11 181.747 212.179 182.007 212.318C182.267 212.457 182.475 212.656 182.631 212.916C182.787 213.167 182.9 213.475 182.969 213.839C183.039 214.194 183.073 214.593 183.073 215.035V219Z" fill="white" fill-opacity="0.7"/>
<g opacity="0.15" filter="url(#filter0_d_512_72)">
<path d="M107.029 171C147.075 171 179.539 163.055 179.539 153.255C179.539 143.454 147.075 135.51 107.029 135.51C66.9826 135.51 34.5187 143.454 34.5187 153.255C34.5187 163.055 66.9826 171 107.029 171Z" fill="#042030"/>
</g>
<g filter="url(#filter1_d_512_72)">
<path d="M163.816 67.6173L107.029 88.0273L50.1841 67.6173L23 109.164L107.029 139.386L191 109.164L163.816 67.6173Z" fill="#455EB5"/>
<path opacity="0.45" d="M32.9061 107.468L102.594 135.51L78.6353 110.557C78.6353 110.557 39.2989 100.564 32.9061 107.468Z" fill="#240F4F"/>
<path opacity="0.45" d="M181.152 107.468L111.464 135.51L135.422 110.557C135.365 110.557 174.701 100.564 181.152 107.468Z" fill="#240F4F"/>
<path d="M107.029 139.386L23 109.164V113.101L107.029 143.322L191 113.101V109.164L107.029 139.386Z" fill="#0D2168"/>
<g filter="url(#filter2_d_512_72)">
<path d="M62.2787 157.555L72.012 130.725L103.343 141.99L62.2787 157.555Z" fill="#0B2062"/>
<path opacity="0.45" d="M64.9856 149.803L103.343 141.99L72.012 130.725L64.9856 149.803Z" fill="#0B2062"/>
<path d="M107.029 140.597L62.2787 157.555L65.6191 161.249L107.029 145.745L148.381 161.249L151.779 157.555L107.029 140.597Z" fill="#0D2168"/>
<path d="M151.779 157.555L141.988 130.725L110.657 141.99L151.779 157.555Z" fill="#0B2062"/>
<path opacity="0.45" d="M149.014 149.803L110.657 141.99L141.988 130.725L149.014 149.803Z" fill="#0B2062"/>
</g>
<path d="M107.029 145.745C108.715 145.745 110.081 144.308 110.081 142.535C110.081 140.762 108.715 139.325 107.029 139.325C105.343 139.325 103.976 140.762 103.976 142.535C103.976 144.308 105.343 145.745 107.029 145.745Z" fill="white" fill-opacity="0.5"/>
<path d="M161.397 67.6173L107.029 96.0823L52.6606 67.6173C50.1841 71.0694 30.2568 106.015 30.2568 106.015C30.4871 106.015 30.6599 106.075 30.8903 106.075C80.8814 111.344 94.7614 127.878 99.3689 131.876C103.976 135.933 107.086 135.51 107.086 135.51C107.086 135.51 110.196 135.933 114.804 131.876C119.411 127.878 133.291 111.344 183.283 106.075C183.513 106.075 183.686 106.015 183.916 106.015C183.801 106.015 163.816 71.13 161.397 67.6173Z" fill="#F5B304"/>
<path d="M183.801 106.015C183.57 106.015 183.398 106.075 183.167 106.075C133.176 111.344 119.296 127.878 114.689 131.876C110.081 135.933 106.971 135.509 106.971 135.509C106.971 135.509 103.861 135.933 99.2537 131.876C94.6462 127.878 80.7662 111.344 30.7751 106.075C30.5447 106.075 30.372 106.015 30.1416 106.015C29.7384 106.681 30.1416 107.166 30.1416 107.166C80.651 112.313 94.0703 128.908 98.6778 132.966C103.285 136.963 106.914 136.66 106.914 136.66C106.914 136.66 110.542 136.963 115.149 132.966C119.757 128.969 133.176 112.374 183.686 107.166C183.801 107.166 184.204 106.681 183.801 106.015Z" fill="#0D2168"/>
<path d="M159.324 64.2862C131.506 57.2608 106.971 81.3047 106.971 81.3047C106.971 81.3047 82.4364 57.2608 54.6188 64.2862C54.6188 64.2862 46.7285 77.0047 35.8433 98.626C35.8433 98.626 90.6147 105.106 106.971 129.271C123.328 105.106 178.099 98.626 178.099 98.626C167.214 77.0047 159.324 64.2862 159.324 64.2862Z" fill="#C2F0FF"/>
<path d="M178.099 98.626C178.099 98.626 123.328 105.106 106.971 129.271C90.6723 105.106 35.9009 98.626 35.9009 98.626C35.9009 98.626 35.9009 100.564 32.8485 104.38C32.8485 104.38 82.5516 108.135 100.636 129.816C104.898 134.904 106.971 134.298 106.971 134.298C106.971 134.298 109.102 134.904 113.306 129.816C131.333 108.135 181.094 104.38 181.094 104.38C178.099 100.504 178.099 98.626 178.099 98.626Z" fill="#A7E9FF"/>
<path d="M156.214 66.8299C156.214 66.8299 135.422 61.258 106.971 84.454C78.5777 61.3186 57.7289 66.8299 57.7289 66.8299L43.6761 95.5373C86.4104 98.626 106.971 121.338 106.971 121.338C106.971 121.338 127.532 98.626 170.266 95.5373L156.214 66.8299ZM107.029 118.612C107.029 118.612 87.7926 97.8993 47.0165 93.8415L58.8231 68.0412C58.8231 68.0412 79.2688 63.8623 107.029 85.7865C134.789 63.8623 155.235 68.0412 155.235 68.0412L167.041 93.8415C126.265 97.8993 107.029 118.612 107.029 118.612Z" fill="#455EB5"/>
<path opacity="0.2" d="M112.27 106.072C119.949 100.116 143.946 86.9372 160.072 88.7541" stroke="#455EB5" stroke-width="3" stroke-linecap="round"/>
<path opacity="0.2" d="M112.27 89.3597C119.085 83.7483 136.805 72.7536 153.161 73.6666" stroke="#455EB5" stroke-width="3" stroke-linecap="round"/>
<path opacity="0.2" d="M112.27 97.8387C119.661 91.7956 138.878 79.9551 156.617 80.9384" stroke="#455EB5" stroke-width="3" stroke-linecap="round"/>
<path opacity="0.2" d="M102.479 106.072C94.7998 100.116 70.8025 86.9372 54.6764 88.7541" stroke="#455EB5" stroke-width="3" stroke-linecap="round"/>
<path opacity="0.2" d="M102.479 89.3597C95.6637 83.7483 77.9441 72.7536 61.5876 73.6666" stroke="#455EB5" stroke-width="3" stroke-linecap="round"/>
<path opacity="0.2" d="M102.479 97.8387C95.0878 91.7956 75.8708 79.9551 58.132 80.9384" stroke="#455EB5" stroke-width="3" stroke-linecap="round"/>
<path d="M107.029 81.3047C107.029 81.3047 107.605 79.185 108.699 79.7906C108.699 79.7906 108.008 114.13 109.16 127.515C109.448 130.846 112.212 135.388 113.306 137.084H111.867L111.463 138.477C111.463 138.477 107.202 130.907 107.029 127.939C106.165 114.615 106.626 84.5146 107.029 81.3047Z" fill="#54DAF5"/>
</g>
<defs>
<filter id="filter0_d_512_72" x="17.5187" y="122.51" width="179.02" height="69.4905" filterUnits="userSpaceOnUse" color-interpolation-filters="sRGB">
<feFlood flood-opacity="0" result="BackgroundImageFix"/>
<feColorMatrix in="SourceAlpha" type="matrix" values="0 0 0 0 0 0 0 0 0 0 0 0 0 0 0 0 0 0 127 0" result="hardAlpha"/>
<feOffset dy="4"/>
<feGaussianBlur stdDeviation="8.5"/>
<feComposite in2="hardAlpha" operator="out"/>
<feColorMatrix type="matrix" values="0 0 0 0 0 0 0 0 0 0 0 0 0 0 0 0 0 0 0.85 0"/>
<feBlend mode="normal" in2="BackgroundImageFix" result="effect1_dropShadow_512_72"/>
<feBlend mode="normal" in="SourceGraphic" in2="effect1_dropShadow_512_72" result="shape"/>
</filter>
<filter id="filter1_d_512_72" x="-40" y="0" width="294" height="224.249" filterUnits="userSpaceOnUse" color-interpolation-filters="sRGB">
<feFlood flood-opacity="0" result="BackgroundImageFix"/>
<feColorMatrix in="SourceAlpha" type="matrix" values="0 0 0 0 0 0 0 0 0 0 0 0 0 0 0 0 0 0 127 0" result="hardAlpha"/>
<feOffset/>
<feGaussianBlur stdDeviation="31.5"/>
<feComposite in2="hardAlpha" operator="out"/>
<feColorMatrix type="matrix" values="0 0 0 0 0.396078 0 0 0 0 0.839216 0 0 0 0 0.988235 0 0 0 1 0"/>
<feBlend mode="normal" in2="BackgroundImageFix" result="effect1_dropShadow_512_72"/>
<feBlend mode="normal" in="SourceGraphic" in2="effect1_dropShadow_512_72" result="shape"/>
</filter>
<filter id="filter2_d_512_72" x="47.2787" y="119.725" width="119.5" height="60.5243" filterUnits="userSpaceOnUse" color-interpolation-filters="sRGB">
<feFlood flood-opacity="0" result="BackgroundImageFix"/>
<feColorMatrix in="SourceAlpha" type="matrix" values="0 0 0 0 0 0 0 0 0 0 0 0 0 0 0 0 0 0 127 0" result="hardAlpha"/>
<feOffset dy="4"/>
<feGaussianBlur stdDeviation="7.5"/>
<feComposite in2="hardAlpha" operator="out"/>
<feColorMatrix type="matrix" values="0 0 0 0 0 0 0 0 0 0 0 0 0 0 0 0 0 0 0.49 0"/>
<feBlend mode="normal" in2="BackgroundImageFix" result="effect1_dropShadow_512_72"/>
<feBlend mode="normal" in="SourceGraphic" in2="effect1_dropShadow_512_72" result="shape"/>
</filter>
</defs>
</svg>
