<svg width="309" height="158" viewBox="0 0 309 158" fill="none" xmlns="http://www.w3.org/2000/svg">
<g clip-path="url(#clip0_301_1223)">
<path d="M0 10C0 4.47715 4.47715 0 10 0L300 0C305.523 0 310 4.47715 310 10V149C310 154.523 305.523 159 300 159L10 159C4.47716 159 0 154.523 0 149L0 10Z" fill="url(#paint0_linear_301_1223)"/>
<g style="mix-blend-mode:soft-light">
<path opacity="0.25" d="M80.8948 142.362C113.252 142.362 139.483 134.832 139.483 125.543C139.483 116.255 113.252 108.724 80.8948 108.724C48.5377 108.724 22.307 116.255 22.307 125.543C22.307 134.832 48.5377 142.362 80.8948 142.362Z" fill="#042030"/>
<path d="M126.779 44.3762L80.8948 63.7209L34.9646 44.3762L13 83.7543L80.8948 112.398L148.743 83.7543L126.779 44.3762Z" fill="#4E2999"/>
<path opacity="0.45" d="M21.0041 82.1471L77.3116 108.724L57.953 85.0746C57.953 85.0746 26.1695 75.6032 21.0041 82.1471Z" fill="#240F4F"/>
<path opacity="0.45" d="M140.786 82.1471L84.478 108.724L103.837 85.0746C103.79 85.0746 135.574 75.6032 140.786 82.1471Z" fill="#240F4F"/>
<path d="M80.8948 112.398L13 83.7543V87.4855L80.8948 116.129L148.743 87.4855V83.7543L80.8948 112.398Z" fill="#65D6FC"/>
<path d="M44.737 129.619L52.6014 104.19L77.9166 114.866L44.737 129.619Z" fill="#455EB5"/>
<path opacity="0.45" d="M46.9241 122.271L77.9166 114.867L52.6014 104.19L46.9241 122.271Z" fill="#455EB5"/>
<path d="M80.8948 113.546L44.737 129.619L47.436 133.12L80.8948 118.425L114.307 133.12L117.053 129.619L80.8948 113.546Z" fill="#65D6FC"/>
<path d="M117.053 129.619L109.142 104.19L83.8265 114.866L117.053 129.619Z" fill="#455EB5"/>
<path opacity="0.45" d="M114.819 122.271L83.8265 114.867L109.142 104.19L114.819 122.271Z" fill="#455EB5"/>
<path d="M80.8948 118.425C82.257 118.425 83.3612 117.063 83.3612 115.383C83.3612 113.703 82.257 112.341 80.8948 112.341C79.5327 112.341 78.4285 113.703 78.4285 115.383C78.4285 117.063 79.5327 118.425 80.8948 118.425Z" fill="white" fill-opacity="0.5"/>
<path d="M124.824 44.3762L80.8948 71.3554L36.9656 44.3762C34.9646 47.6482 18.8634 80.7694 18.8634 80.7694C19.0496 80.7694 19.1892 80.8268 19.3753 80.8268C59.7679 85.8208 70.9828 101.492 74.7057 105.28C78.4285 109.126 80.9414 108.724 80.9414 108.724C80.9414 108.724 83.4543 109.126 87.1771 105.28C90.8999 101.492 102.115 85.8208 142.507 80.8268C142.694 80.8268 142.833 80.7694 143.019 80.7694C142.926 80.7694 126.779 47.7056 124.824 44.3762Z" fill="#F5B304"/>
<path d="M142.926 80.7694C142.74 80.7694 142.6 80.8268 142.414 80.8268C102.022 85.8208 90.8068 101.492 87.084 105.28C83.3612 109.126 80.8483 108.724 80.8483 108.724C80.8483 108.724 78.3354 109.126 74.6126 105.28C70.8898 101.492 59.6748 85.8208 19.2822 80.8268C19.0961 80.8268 18.9565 80.7694 18.7704 80.7694C18.4446 81.4008 18.7704 81.8601 18.7704 81.8601C59.5817 86.7393 70.4244 102.468 74.1472 106.314C77.87 110.102 80.8017 109.815 80.8017 109.815C80.8017 109.815 83.7335 110.102 87.4563 106.314C91.1791 102.525 102.022 86.7967 142.833 81.8601C142.926 81.8601 143.252 81.4008 142.926 80.7694Z" fill="#65D6FC"/>
<path d="M123.149 41.2191C100.672 34.5604 80.8483 57.3492 80.8483 57.3492C80.8483 57.3492 61.0243 34.5604 38.5478 41.2191C38.5478 41.2191 32.1725 53.2736 23.3773 73.7663C23.3773 73.7663 67.6323 79.9084 80.8483 102.812C94.0643 79.9084 138.319 73.7663 138.319 73.7663C129.524 53.2736 123.149 41.2191 123.149 41.2191Z" fill="#D7F3FC"/>
<path d="M138.319 73.7663C138.319 73.7663 94.0643 79.9084 80.8483 102.812C67.6788 79.9084 23.4239 73.7663 23.4239 73.7663C23.4239 73.7663 23.4239 75.6032 20.9575 79.2195C20.9575 79.2195 61.1174 82.7785 75.7294 103.329C79.173 108.15 80.8483 107.576 80.8483 107.576C80.8483 107.576 82.5701 108.15 85.9671 103.329C100.533 82.7785 140.739 79.2195 140.739 79.2195C138.319 75.5458 138.319 73.7663 138.319 73.7663Z" fill="#A8D3E1"/>
<path d="M120.636 43.63C120.636 43.63 103.837 38.349 80.8483 60.3341C57.9064 38.4064 41.0607 43.63 41.0607 43.63L29.7061 70.8388C64.2352 73.7663 80.8483 95.2922 80.8483 95.2922C80.8483 95.2922 97.4613 73.7663 131.99 70.8388L120.636 43.63ZM80.8948 92.7091C80.8948 92.7091 65.3521 73.0775 32.4052 69.2315L41.9449 44.778C41.9449 44.778 58.4649 40.8173 80.8948 61.597C103.325 40.8173 119.845 44.778 119.845 44.778L129.384 69.2315C96.4376 73.0775 80.8948 92.7091 80.8948 92.7091Z" fill="#65D6FC"/>
<path opacity="0.2" d="M85.1295 80.8233C91.3342 75.1787 110.724 62.6876 123.754 64.4097" stroke="#65D6FC" stroke-width="3" stroke-linecap="round"/>
<path opacity="0.2" d="M85.1295 64.9837C90.6362 59.6652 104.954 49.2444 118.169 50.1098" stroke="#65D6FC" stroke-width="3" stroke-linecap="round"/>
<path opacity="0.2" d="M85.1295 73.0201C91.1015 67.2924 106.629 56.07 120.962 57.002" stroke="#65D6FC" stroke-width="3" stroke-linecap="round"/>
<path opacity="0.2" d="M77.2186 80.8233C71.0139 75.1787 51.6242 62.6876 38.5944 64.4097" stroke="#65D6FC" stroke-width="3" stroke-linecap="round"/>
<path opacity="0.2" d="M77.2186 64.9837C71.7119 59.6652 57.3946 49.2444 44.1786 50.1098" stroke="#65D6FC" stroke-width="3" stroke-linecap="round"/>
<path opacity="0.2" d="M77.2186 73.0201C71.2466 67.2924 55.7193 56.07 41.3865 57.002" stroke="#65D6FC" stroke-width="3" stroke-linecap="round"/>
<path d="M80.8948 57.3492C80.8948 57.3492 81.3602 55.3401 82.2444 55.9141C82.2444 55.9141 81.6859 88.4613 82.6166 101.147C82.8493 104.304 85.083 108.61 85.9672 110.217H84.8038L84.478 111.537C84.478 111.537 81.0344 104.362 80.8948 101.549C80.1968 88.9206 80.5691 60.3915 80.8948 57.3492Z" fill="#54DAF5"/>
</g>
</g>
<defs>
<linearGradient id="paint0_linear_301_1223" x1="0" y1="0" x2="138.106" y2="266.405" gradientUnits="userSpaceOnUse">
<stop stop-color="#65D6FC"/>
<stop offset="1" stop-color="#455EB5"/>
</linearGradient>
<clipPath id="clip0_301_1223">
<rect width="326" height="179" rx="10" fill="white"/>
</clipPath>
</defs>
</svg>
