<svg width="375" height="122" viewBox="0 0 375 122" fill="none" xmlns="http://www.w3.org/2000/svg">
<g opacity="0.84">
<path opacity="0.3" fill-rule="evenodd" clip-rule="evenodd" d="M312.058 124.284C312.058 121.393 310.455 118.956 308.227 118.024C308.227 117.991 308.233 117.959 308.233 117.925C308.233 116.941 307.687 116.108 306.926 115.789L306.648 114.813C306.7 114.726 306.736 114.624 306.736 114.509C306.736 114.286 306.617 114.097 306.454 114.009L306.28 110.936C306.28 110.922 306.267 110.912 306.257 110.912C306.242 110.912 306.228 110.922 306.228 110.936L306.055 114.009C305.89 114.097 305.77 114.286 305.77 114.509C305.77 114.625 305.808 114.727 305.863 114.816L305.584 115.789C304.821 116.109 304.274 116.938 304.274 117.925C304.274 117.959 304.28 117.99 304.282 118.024C302.545 118.75 301.203 120.393 300.687 122.446V114.69H300.791C301.044 114.69 301.248 114.456 301.248 114.163V113.863C301.248 113.574 301.044 113.336 300.791 113.336H300.169C300.198 113.14 300.215 112.946 300.215 112.738C300.215 111.328 299.565 110.089 298.591 109.399C297.994 108.972 297.477 108.413 297.067 107.761C297.143 107.678 297.191 107.559 297.191 107.43C297.191 107.246 297.095 107.085 296.954 107.017L296.855 105.233H296.74L296.639 107.017C296.5 107.085 296.404 107.246 296.404 107.43C296.404 107.559 296.45 107.678 296.527 107.761C296.121 108.416 295.605 108.972 295 109.399C294.028 110.089 293.38 111.328 293.38 112.738C293.38 112.946 293.397 113.14 293.421 113.336H292.821C292.567 113.336 292.361 113.574 292.361 113.863V114.163C292.361 114.456 292.567 114.69 292.821 114.69H292.909V122.086H291.419C291.805 121.253 292.015 120.362 292.015 119.443C292.015 116.231 289.472 113.419 285.661 111.849C283.18 110.823 281.066 109.443 279.42 107.839C279.484 107.698 279.526 107.546 279.526 107.375C279.526 106.956 279.307 106.596 278.99 106.436L278.764 102.385H278.5L278.275 106.436C277.958 106.595 277.735 106.956 277.735 107.375C277.735 107.546 277.781 107.697 277.843 107.839C276.335 109.316 274.451 110.579 272.224 111.575C272.168 111.049 272.048 110.499 271.837 109.948C271.505 109.051 270.83 108.235 270.062 107.497C269.318 106.786 268.483 106.179 267.808 105.732C267.832 105.627 267.877 105.468 267.877 105.31C267.877 105.1 267.854 104.863 267.775 104.625C267.683 104.388 267.488 104.151 267.27 103.967C267.076 103.782 266.858 103.624 266.698 103.518L266.686 103.124C266.733 103.072 266.756 103.045 266.778 102.966C266.824 102.913 266.835 102.834 266.835 102.756C266.835 102.676 266.812 102.596 266.778 102.518C266.745 102.465 266.709 102.412 266.652 102.386L266.641 102.016C266.663 101.991 266.698 101.938 266.71 101.911C266.745 101.858 266.756 101.806 266.756 101.727C266.756 101.674 266.733 101.594 266.71 101.543C266.686 101.49 266.653 101.464 266.619 101.437L266.595 101.042L266.481 98.1973C266.481 98.1451 266.458 98.1175 266.436 98.1175C266.401 98.1451 266.377 98.1705 266.377 98.1973L266.263 101.042L266.252 101.437C266.206 101.465 266.184 101.49 266.161 101.543C266.127 101.594 266.114 101.674 266.114 101.727C266.114 101.806 266.114 101.858 266.148 101.911C266.161 101.938 266.195 101.991 266.23 102.016L266.206 102.386C266.161 102.412 266.114 102.465 266.092 102.518C266.046 102.596 266.022 102.676 266.022 102.756C266.022 102.834 266.046 102.913 266.08 102.966C266.104 103.045 266.137 103.072 266.184 103.124L266.16 103.518C266 103.624 265.794 103.782 265.587 103.967C265.381 104.151 265.187 104.388 265.084 104.625C265.004 104.862 264.981 105.1 264.993 105.31C264.993 105.468 265.028 105.627 265.061 105.732C264.374 106.179 263.551 106.786 262.807 107.497C262.424 107.866 262.061 108.254 261.752 108.662C259.538 102.412 254.358 97.9329 248.218 97.5366V96.8979C248.218 96.6677 248.054 96.4792 247.855 96.4792H247.571L247.339 89.7614C247.986 90.0157 248.689 90.1126 249.41 89.9662C250.573 89.7316 251.537 88.9728 252.159 87.9378C251.711 88.2556 251.209 88.4831 250.66 88.5936C248.37 89.0561 246.18 87.2894 245.78 84.6507C245.582 83.3435 245.853 82.07 246.458 81.0612C245.042 82.0765 244.224 84.0124 244.531 86.0238C244.789 87.7181 245.786 89.042 247.072 89.6593L246.845 96.4792H246.554C246.46 96.4792 246.372 96.5213 246.305 96.598C246.238 96.6743 246.201 96.7787 246.201 96.8856V97.5502C240.509 98.0237 235.666 102.009 233.303 107.639L233.254 99.1591H233.456C233.786 99.1591 234.059 98.8448 234.059 98.4708C234.059 98.096 233.786 97.7865 233.456 97.7865H233.254L233.208 88.256H233.456C233.748 88.256 233.992 87.9855 233.992 87.6497C233.992 87.363 233.82 87.1206 233.59 87.0548V84.201H233.8C233.953 84.201 234.077 84.0572 234.077 83.8814C234.077 83.7109 233.954 83.5723 233.8 83.5723H233.541C233.694 83.0603 233.877 82.0801 233.498 81.0823C233.321 80.6189 232.958 80.1788 232.556 79.793C232.158 79.4186 231.718 79.0986 231.359 78.8676C231.378 78.8018 231.397 78.7247 231.397 78.6304C231.402 78.5147 231.392 78.3932 231.339 78.2736C231.296 78.1407 231.191 78.0193 231.076 77.9198C230.977 77.8264 230.862 77.7492 230.775 77.6944L230.766 77.4788C230.785 77.4573 230.809 77.4292 230.818 77.4016C230.838 77.3639 230.847 77.3253 230.847 77.2868C230.847 77.2412 230.838 77.1925 230.814 77.1601C230.804 77.1267 230.775 77.1044 230.751 77.082L230.747 76.8953C230.756 76.8782 230.775 76.8567 230.785 76.8286C230.798 76.8072 230.804 76.7739 230.804 76.7405C230.804 76.7081 230.798 76.6695 230.78 76.6419C230.77 76.6195 230.751 76.5972 230.727 76.5753L230.722 76.3767L230.665 74.8682C230.66 74.8458 230.651 74.8349 230.632 74.8349C230.612 74.8349 230.603 74.8511 230.603 74.8682L230.545 76.3767L230.537 76.5753C230.517 76.5976 230.498 76.62 230.488 76.6419C230.469 76.6695 230.459 76.7077 230.459 76.7405C230.459 76.7739 230.469 76.8072 230.483 76.8286C230.494 76.8567 230.508 76.8782 230.527 76.8953L230.518 77.082C230.489 77.1044 230.469 77.1267 230.45 77.1601C230.431 77.1925 230.422 77.2416 230.422 77.2868C230.422 77.3253 230.431 77.3639 230.45 77.4016C230.459 77.4292 230.479 77.4573 230.498 77.4788L230.494 77.6944C230.412 77.7492 230.296 77.8264 230.192 77.9198C230.076 78.0193 229.971 78.1407 229.924 78.2736C229.875 78.3932 229.867 78.5151 229.871 78.6304C229.875 78.7247 229.89 78.8018 229.904 78.8676C229.55 79.0986 229.11 79.4191 228.717 79.793C228.305 80.1792 227.952 80.6194 227.77 81.0823C227.387 82.0796 227.579 83.0603 227.727 83.5723H227.417C227.272 83.5723 227.148 83.7109 227.148 83.8814C227.148 84.0567 227.272 84.201 227.417 84.201H227.646V87.0548C227.412 87.1158 227.235 87.3578 227.235 87.6497C227.235 87.9855 227.473 88.256 227.761 88.256H228.02L227.971 97.7865H227.761C227.435 97.7865 227.168 98.0956 227.168 98.4708C227.168 98.8452 227.435 99.1591 227.761 99.1591H227.961L227.935 104.697C225.882 99.7167 219.757 100.251 217.946 103.857V102.726H218.03C218.25 102.726 218.419 102.531 218.419 102.297C218.419 102.025 218.25 101.83 218.03 101.83H217.811C218.217 100.816 219.182 97.541 217.911 94.2264C217.42 92.9003 216.422 91.6921 215.286 90.6009C214.184 89.5471 212.949 88.6515 211.95 87.9877C211.984 87.8321 212.051 87.5971 212.051 87.3644C212.051 87.0518 212.017 86.7015 211.9 86.3503C211.763 85.9992 211.475 85.6481 211.153 85.3758C210.866 85.1027 210.545 84.8682 210.307 84.7121L210.289 84.1282C210.359 84.0502 210.392 84.0107 210.425 83.8936C210.494 83.8156 210.51 83.6986 210.51 83.5828C210.51 83.4645 210.476 83.3474 210.425 83.2308C210.376 83.1528 210.323 83.0743 210.24 83.0357L210.222 82.4895C210.255 82.4509 210.307 82.3729 210.324 82.3339C210.376 82.2558 210.392 82.1783 210.392 82.0617C210.392 81.9836 210.359 81.8657 210.324 81.7885C210.289 81.7105 210.24 81.6719 210.189 81.6329L210.155 81.0481L209.985 76.8374C209.985 76.7594 209.952 76.7199 209.918 76.7199C209.867 76.7594 209.832 76.798 209.832 76.8374L209.663 81.0481L209.647 81.6329C209.577 81.6724 209.545 81.7109 209.511 81.7885C209.46 81.8657 209.443 81.9836 209.443 82.0617C209.443 82.1783 209.443 82.2558 209.493 82.3339C209.511 82.3733 209.562 82.4514 209.613 82.4895L209.578 83.0357C209.511 83.0743 209.443 83.1532 209.41 83.2308C209.342 83.3474 209.308 83.4645 209.308 83.5828C209.308 83.6986 209.342 83.8156 209.392 83.8936C209.427 84.0111 209.478 84.0502 209.546 84.1282L209.511 84.7121C209.274 84.8677 208.97 85.1027 208.665 85.3758C208.36 85.6481 208.072 85.9992 207.919 86.3503C207.799 86.7015 207.767 87.0518 207.783 87.3644C207.783 87.5971 207.835 87.8317 207.885 87.9877C206.869 88.6515 205.649 89.5471 204.55 90.6009C203.415 91.6917 202.398 92.8998 201.906 94.2264C200.637 97.541 201.618 100.816 202.007 101.83H201.805C201.585 101.83 201.415 102.025 201.415 102.297C201.415 102.531 201.585 102.726 201.805 102.726H201.99V103.857H200.164L200.128 83.777H200.67C201.027 83.777 201.313 83.4259 201.313 83.0366C201.313 82.6083 201.026 82.2962 200.67 82.2962H200.128L200.078 71.184H200.264C200.569 71.184 200.84 70.9109 200.84 70.5598C200.84 70.17 200.569 69.8969 200.264 69.8969H200.059L200.027 60.8907H200.264C200.535 60.8907 200.772 60.6181 200.772 60.3059C200.772 60.0328 200.602 59.7987 200.382 59.7606V57.0308H200.586C200.737 57.0308 200.84 56.9133 200.84 56.7572C200.84 56.6011 200.737 56.4455 200.586 56.4455H200.349C200.484 55.9773 200.67 55.0422 200.299 54.1067C200.128 53.6776 199.789 53.2479 199.417 52.8977C199.044 52.5079 198.621 52.2344 198.282 52.0007C198.3 51.9622 198.317 51.8837 198.317 51.7666C198.317 51.6886 198.3 51.5729 198.265 51.4545C198.214 51.2989 198.13 51.1823 198.012 51.1038C197.91 51.0262 197.808 50.9486 197.722 50.9092V50.6755C197.741 50.6755 197.757 50.6369 197.757 50.597C197.791 50.597 197.791 50.558 197.791 50.519C197.791 50.4804 197.791 50.4405 197.757 50.402C197.757 50.3629 197.722 50.3239 197.69 50.3239V50.1293C197.722 50.1293 197.722 50.0907 197.741 50.0907C197.757 50.0508 197.757 50.0118 197.757 49.9723C197.757 49.9723 197.757 49.9337 197.722 49.8943C197.722 49.8562 197.707 49.8562 197.69 49.8562L197.673 49.6611L197.621 48.2183C197.621 48.2183 197.605 48.1793 197.587 48.1793C197.57 48.1793 197.554 48.2183 197.554 48.2183L197.503 49.6611V49.8562C197.486 49.8562 197.452 49.8562 197.452 49.8943C197.435 49.9337 197.419 49.9723 197.419 49.9723C197.419 50.0118 197.435 50.0508 197.452 50.0907C197.452 50.0907 197.469 50.1293 197.486 50.1293V50.3239C197.452 50.3239 197.435 50.3629 197.419 50.402C197.4 50.4405 197.385 50.4804 197.385 50.519C197.385 50.558 197.4 50.597 197.419 50.597C197.419 50.6369 197.452 50.6755 197.469 50.6755L197.452 50.9092C197.385 50.9486 197.282 51.0266 197.181 51.1038C197.062 51.1823 196.978 51.2984 196.91 51.4545C196.876 51.5729 196.876 51.6886 196.876 51.7666C196.876 51.8841 196.893 51.9622 196.91 52.0007C196.571 52.2344 196.148 52.5079 195.774 52.8977C195.386 53.2479 195.046 53.6771 194.878 54.1067C194.523 55.0422 194.71 55.9773 194.845 56.4455H194.556C194.403 56.4455 194.302 56.6007 194.302 56.7572C194.302 56.9137 194.403 57.0308 194.556 57.0308H194.76V57.7707C194.76 57.8106 194.76 57.8492 194.741 57.8882L194.76 57.9658V59.7606C194.54 59.7987 194.37 60.0328 194.37 60.3059C194.37 60.6181 194.607 60.8907 194.878 60.8907H195.116L195.081 69.8969H194.878C194.573 69.8969 194.302 70.17 194.302 70.5598C194.302 70.9109 194.573 71.184 194.878 71.184H195.063L195.013 82.2962H194.47C194.117 82.2962 193.827 82.6088 193.827 83.0366C193.827 83.4263 194.117 83.777 194.47 83.777H194.997L194.979 95.3574H194.014V90.7176H191.811V89.5874H191.898C192.1 89.5874 192.287 89.3914 192.287 89.1578C192.287 88.8856 192.1 88.6905 191.898 88.6905H191.694C192.083 87.6765 193.048 84.4009 191.795 81.0871C191.289 79.7619 190.289 78.5528 189.154 77.4617C188.052 76.4087 186.816 75.5113 185.818 74.8484C185.868 74.6919 185.901 74.4587 185.935 74.1856C185.935 73.9125 185.901 73.5622 185.766 73.2111C185.631 72.8599 185.343 72.5088 185.021 72.2357C184.734 71.9626 184.412 71.7289 184.174 71.5728L184.157 70.9889C184.224 70.91 184.276 70.8714 184.31 70.7544C184.344 70.6763 184.378 70.5593 184.378 70.4418C184.378 70.3243 184.344 70.2082 184.31 70.0916C184.242 70.0135 184.191 69.9359 184.107 69.8965L184.089 69.3511C184.14 69.3117 184.174 69.2336 184.208 69.1946C184.242 69.1166 184.276 69.039 184.276 68.9215C184.276 68.8444 184.242 68.7273 184.208 68.6484C184.174 68.5712 184.107 68.5318 184.057 68.4932L184.038 67.9084L183.87 63.6977C183.87 63.6188 183.836 63.5802 183.785 63.5802C183.733 63.6188 183.701 63.6583 183.701 63.6977L183.531 67.9084L183.515 68.4932C183.462 68.5318 183.412 68.5712 183.379 68.6484C183.327 68.7273 183.31 68.8444 183.31 68.9215C183.31 69.039 183.327 69.1166 183.362 69.1946C183.397 69.2341 183.43 69.3121 183.481 69.3511L183.463 69.8965C183.397 69.9359 183.328 70.014 183.277 70.0916C183.226 70.2082 183.193 70.3243 183.193 70.4418C183.193 70.5593 183.226 70.6763 183.26 70.7544C183.294 70.8719 183.362 70.91 183.43 70.9889L183.397 71.5728C183.159 71.7285 182.853 71.9626 182.548 72.2357C182.243 72.5088 181.938 72.8599 181.804 73.2111C181.668 73.5622 181.634 73.9125 181.651 74.1856C181.668 74.4587 181.701 74.6915 181.751 74.8484C180.754 75.5113 179.534 76.4087 178.416 77.4617C177.281 78.5524 176.282 79.7614 175.79 81.0871C174.521 84.4009 175.503 87.6765 175.875 88.6905H175.673C175.469 88.6905 175.299 88.8856 175.299 89.1578C175.299 89.3914 175.469 89.5874 175.673 89.5874H175.875V90.7176H173.555V95.3574H171.879V91.8477C172.082 91.6921 172.252 91.458 172.252 91.1463C172.252 90.7171 171.981 90.3269 171.642 90.2498V85.9207H171.964C172.183 85.9207 172.37 85.688 172.37 85.4543C172.37 85.1803 172.183 84.987 171.964 84.987H171.575C171.796 84.2062 172.082 82.7241 171.505 81.2042C171.235 80.5019 170.693 79.8386 170.083 79.2555C169.473 78.6699 168.813 78.2017 168.255 77.8514C168.29 77.7734 168.323 77.6169 168.323 77.4994C168.323 77.306 168.323 77.1491 168.238 76.954C168.152 76.7598 168.017 76.5643 167.832 76.4087C167.679 76.2921 167.51 76.1355 167.374 76.0575V75.7458C167.408 75.7064 167.441 75.6678 167.441 75.6284C167.476 75.5889 167.492 75.5109 167.492 75.4727C167.492 75.3947 167.476 75.3162 167.441 75.2785C167.408 75.1996 167.374 75.161 167.34 75.161V74.8484C167.357 74.8484 167.374 74.8099 167.391 74.7704C167.409 74.7318 167.425 74.6915 167.425 74.6152C167.425 74.5758 167.409 74.5363 167.391 74.4977C167.374 74.4583 167.34 74.4188 167.305 74.3803V74.0686L167.205 71.8074C167.205 71.7688 167.187 71.7285 167.17 71.7285C167.138 71.7285 167.119 71.7688 167.119 71.8074L167.035 74.0686L167.018 74.3803C166.983 74.4188 166.967 74.4583 166.934 74.4977C166.917 74.5363 166.899 74.5758 166.899 74.6152C166.899 74.6915 166.917 74.7318 166.934 74.7704C166.95 74.8099 166.967 74.8484 167.001 74.8484V75.161C166.95 75.161 166.917 75.1996 166.899 75.2785C166.865 75.3162 166.831 75.3951 166.831 75.4727C166.831 75.5113 166.865 75.5893 166.882 75.6284C166.899 75.6678 166.934 75.7064 166.967 75.7458L166.95 76.0575C166.831 76.1355 166.662 76.2921 166.493 76.4087C166.325 76.5643 166.171 76.7598 166.085 76.954C166.02 77.1491 166.001 77.3446 166.02 77.4994C166.02 77.6169 166.036 77.7734 166.053 77.8514C165.528 78.2017 164.866 78.6699 164.258 79.2555C163.647 79.8386 163.106 80.5023 162.834 81.2042C162.258 82.7241 162.529 84.2062 162.766 84.987H162.292C162.073 84.987 161.886 85.1803 161.886 85.4543C161.886 85.688 162.073 85.9207 162.292 85.9207H162.632V90.2498C162.292 90.3269 162.022 90.7171 162.022 91.1463C162.022 91.458 162.174 91.6916 162.361 91.8477V95.3574H162.336V95.2066C160.884 83.6135 154.66 73.9997 139.116 66.8102C131.122 63.1103 127.158 58.0825 125.217 54.3908C127.078 53.4549 128.38 51.3204 128.38 48.8334C128.38 45.8704 126.533 43.408 124.093 42.8779L124.007 40.2034C124.681 39.8654 125.152 39.0947 125.152 38.1947C125.152 37.2386 124.617 36.4337 123.875 36.1343L123.668 29.7168C126.03 30.3007 128.548 30.2007 131 29.2494C134.683 27.8181 137.486 24.7977 139.057 21.0749C137.746 22.3672 136.209 23.3935 134.475 24.0677C127.214 26.8848 119.335 22.3909 116.884 14.0344C115.67 9.89344 116.009 5.59157 117.542 1.96043C113.365 6.0795 111.541 12.8446 113.41 19.2161C114.96 24.5101 118.696 28.246 123.07 29.562L122.73 36.0953C121.932 36.3565 121.344 37.1925 121.344 38.1947C121.344 39.1057 121.827 39.8864 122.514 40.2169L122.378 42.8341C119.816 43.2462 117.843 45.7709 117.843 48.8334C117.843 51.4286 119.261 53.6363 121.253 54.5021C119.292 58.1828 115.326 63.148 107.412 66.8102C92.93 73.5092 86.5346 82.312 84.5553 92.8599V91.8477C84.7415 91.6921 84.8939 91.458 84.8939 91.1463C84.8939 90.7171 84.6242 90.3269 84.2845 90.2498V85.9207H84.6242C84.8432 85.9207 85.0294 85.688 85.0294 85.4543C85.0294 85.1803 84.8432 84.987 84.6242 84.987H84.15C84.3873 84.2062 84.6577 82.7241 84.0819 81.2042C83.8103 80.5019 83.2691 79.8386 82.6578 79.2555C82.0496 78.6699 81.3881 78.2017 80.8629 77.8514C80.8804 77.7734 80.8964 77.6169 80.8964 77.4994C80.9146 77.3442 80.8964 77.1491 80.8305 76.954C80.7452 76.7598 80.5913 76.5643 80.423 76.4087C80.2539 76.2921 80.0844 76.1355 79.9659 76.0575L79.9488 75.7458C79.9823 75.7064 80.017 75.6678 80.0341 75.6284C80.0505 75.5889 80.0848 75.5109 80.0848 75.4727C80.0848 75.3947 80.0505 75.3162 80.017 75.2785C79.9994 75.1996 79.9659 75.161 79.9153 75.161V74.8484C79.9488 74.8484 79.9659 74.8099 79.9823 74.7704C79.9994 74.7318 80.017 74.6915 80.017 74.6152C80.017 74.5758 79.9994 74.5363 79.9823 74.4977C79.9488 74.4583 79.9328 74.4188 79.8981 74.3803L79.8818 74.0686L79.7964 71.8074C79.7964 71.7688 79.7782 71.7285 79.7458 71.7285C79.7287 71.7285 79.7111 71.7688 79.7111 71.8074L79.611 74.0686V74.3803C79.5763 74.4188 79.5416 74.4583 79.5245 74.4977C79.5074 74.5363 79.491 74.5758 79.491 74.6152C79.491 74.6915 79.5074 74.7318 79.5245 74.7704C79.5416 74.8099 79.5592 74.8484 79.5763 74.8484V75.161C79.5416 75.161 79.5074 75.1996 79.475 75.2785C79.4403 75.3162 79.424 75.3951 79.424 75.4727C79.424 75.5113 79.4403 75.5893 79.475 75.6284C79.475 75.6678 79.5074 75.7064 79.5417 75.7458V76.0575C79.4061 76.1355 79.2366 76.2921 79.0846 76.4087C78.8984 76.5643 78.7635 76.7598 78.6782 76.954C78.5933 77.1491 78.5933 77.306 78.5933 77.4994C78.5933 77.6169 78.6264 77.7734 78.6611 77.8514C78.1028 78.2017 77.4431 78.6699 76.8326 79.2555C76.2225 79.8386 75.6813 80.5023 75.4109 81.2042C74.8339 82.7241 75.1206 84.2062 75.3415 84.987H74.9515C74.7329 84.987 74.5463 85.1803 74.5463 85.4543C74.5463 85.688 74.7329 85.9207 74.9515 85.9207H75.2741V90.2498C74.9355 90.3269 74.6636 90.7171 74.6636 91.1463C74.6636 91.458 74.8338 91.6916 75.0365 91.8477V95.3574H73.3603V90.7176H71.0401V89.5874H71.2427C71.4465 89.5874 71.6167 89.3914 71.6167 89.1578C71.6167 88.8856 71.4465 88.6905 71.2427 88.6905H71.0401C71.413 87.6765 72.3944 84.4009 71.1254 81.0871C70.6337 79.7619 69.6355 78.5528 68.499 77.4617C67.382 76.4087 66.1617 75.5113 65.1642 74.8484C65.2141 74.6919 65.2476 74.4587 65.2648 74.1856C65.2811 73.9125 65.2476 73.5622 65.1117 73.2111C64.9768 72.8599 64.6733 72.5088 64.3678 72.2357C64.0628 71.9626 63.757 71.7289 63.5193 71.5728L63.4858 70.9889C63.5539 70.91 63.6217 70.8714 63.656 70.7544C63.6895 70.6763 63.723 70.5593 63.723 70.4418C63.723 70.3243 63.6895 70.2082 63.6389 70.0916C63.5882 70.0135 63.5193 69.9359 63.4526 69.8965L63.4351 69.3511C63.4858 69.3117 63.5193 69.2336 63.5539 69.1946C63.5886 69.1166 63.6057 69.039 63.6057 68.9215C63.6057 68.8444 63.5886 68.7273 63.5368 68.6484C63.5033 68.5712 63.4526 68.5318 63.4008 68.4932L63.3848 67.9084L63.2146 63.6977C63.2146 63.6583 63.1822 63.6188 63.1304 63.5802C63.0798 63.5802 63.0463 63.6188 63.0463 63.6977L62.8772 67.9084L62.8585 68.4932C62.809 68.5318 62.7408 68.5712 62.7077 68.6484C62.673 68.7273 62.6395 68.8444 62.6395 68.9215C62.6395 69.039 62.673 69.1166 62.7077 69.1946C62.7408 69.2341 62.7755 69.3121 62.8261 69.3511L62.809 69.8965C62.7237 69.9359 62.6734 70.014 62.6052 70.0916C62.5717 70.2082 62.5374 70.3243 62.5374 70.4418C62.5374 70.5593 62.5717 70.6763 62.6052 70.7544C62.6399 70.8719 62.6917 70.91 62.7583 70.9889L62.7408 71.5728C62.5039 71.7285 62.1813 71.9626 61.8945 72.2357C61.572 72.5088 61.284 72.8599 61.1496 73.2111C61.014 73.5622 60.9805 73.9125 60.9805 74.1856C61.014 74.4587 61.0475 74.6915 61.097 74.8484C60.0988 75.5113 58.8633 76.4087 57.7615 77.4617C56.6265 78.5524 55.6271 79.7614 55.1198 81.0871C53.8672 84.4009 54.8319 87.6765 55.2215 88.6905H55.0178C54.8151 88.6905 54.6285 88.8856 54.6285 89.1578C54.6285 89.3914 54.8151 89.5874 55.0178 89.5874H55.1042V90.7176H52.9017V95.3574H51.9358L51.9183 83.777H52.4447C52.7985 83.777 53.0879 83.4259 53.0879 83.0366C53.0879 82.6083 52.7981 82.2962 52.4447 82.2962H51.9023L51.8517 71.184H52.0379C52.3418 71.184 52.6126 70.9109 52.6126 70.5598C52.6126 70.17 52.3418 69.8969 52.0379 69.8969H51.8342L51.7995 60.8907H52.0379C52.3087 60.8907 52.5456 60.6181 52.5456 60.3059C52.5456 60.0328 52.3754 59.7987 52.1556 59.7606V57.9658L52.1739 57.8882C52.1556 57.8492 52.1556 57.8106 52.1556 57.7707V57.0308H52.3594C52.5121 57.0308 52.6126 56.9133 52.6126 56.7572C52.6126 56.6011 52.5121 56.4455 52.3594 56.4455H52.0703C52.2059 55.9773 52.3917 55.0422 52.0379 54.1067C51.8688 53.6776 51.5291 53.2479 51.1414 52.8977C50.7674 52.5079 50.3442 52.2344 50.0049 52.0007C50.0224 51.9622 50.0395 51.8837 50.0395 51.7666C50.0395 51.6886 50.0395 51.5729 50.0049 51.4545C49.9371 51.2989 49.8533 51.1823 49.7345 51.1038C49.6328 51.0262 49.5307 50.9486 49.4637 50.9092L49.4465 50.6755C49.4637 50.6755 49.4961 50.6369 49.4961 50.597C49.5147 50.597 49.5307 50.558 49.5307 50.519C49.5307 50.4804 49.5147 50.4405 49.4961 50.402C49.4801 50.3629 49.4637 50.3239 49.429 50.3239V50.1293C49.4466 50.1293 49.4637 50.0907 49.4637 50.0907C49.4801 50.0508 49.4961 50.0118 49.4961 49.9723C49.4961 49.9723 49.4801 49.9337 49.4637 49.8943C49.4637 49.8562 49.429 49.8562 49.4119 49.8562V49.6611L49.3612 48.2183C49.3612 48.2183 49.3449 48.1793 49.3289 48.1793C49.3106 48.1793 49.2942 48.2183 49.2942 48.2183L49.2424 49.6611L49.2253 49.8562C49.2089 49.8562 49.1929 49.8562 49.1929 49.8943C49.1582 49.9337 49.1582 49.9723 49.1582 49.9723C49.1582 50.0118 49.1582 50.0508 49.1742 50.0907C49.1929 50.0907 49.1929 50.1293 49.2253 50.1293V50.3239C49.1929 50.3239 49.1582 50.3629 49.1582 50.402C49.1247 50.4405 49.1247 50.4804 49.1247 50.519C49.1247 50.558 49.1247 50.597 49.1582 50.597C49.1582 50.6369 49.1742 50.6755 49.1929 50.6755V50.9092C49.1076 50.9486 49.0051 51.0266 48.9038 51.1038C48.785 51.1823 48.7012 51.2984 48.6506 51.4545C48.6159 51.5729 48.5988 51.6886 48.5988 51.7666C48.5988 51.8841 48.6159 51.9622 48.633 52.0007C48.2945 52.2344 47.8709 52.5079 47.4981 52.8977C47.126 53.2479 46.7866 53.6771 46.6164 54.1067C46.2454 55.0422 46.4313 55.9773 46.5657 56.4455H46.3296C46.1776 56.4455 46.0752 56.6007 46.0752 56.7572C46.0752 56.9137 46.1776 57.0308 46.3296 57.0308H46.5334V59.7606C46.3136 59.7987 46.1434 60.0328 46.1434 60.3059C46.1434 60.6181 46.3803 60.8907 46.651 60.8907H46.8879L46.8559 69.8969H46.651C46.3467 69.8969 46.0752 70.17 46.0752 70.5598C46.0752 70.9109 46.3467 71.184 46.651 71.184H46.8373L46.7866 82.2962H46.2454C45.8886 82.2962 45.6018 82.6088 45.6018 83.0366C45.6018 83.4263 45.8889 83.777 46.2454 83.777H46.7866L46.752 103.857H44.9246V102.726H45.1101C45.331 102.726 45.5001 102.531 45.5001 102.297C45.5001 102.025 45.331 101.83 45.1101 101.83H44.9086C45.2967 100.816 46.2789 97.541 45.0088 94.2264C44.5171 92.9003 43.5006 91.6921 42.3656 90.6009C41.2657 89.5471 40.0466 88.6515 39.0301 87.9877C39.0807 87.8321 39.1325 87.5971 39.1325 87.3644C39.1485 87.0518 39.1154 86.7015 38.9969 86.3503C38.8438 85.9992 38.5559 85.6481 38.2508 85.3758C37.9457 85.1027 37.6414 84.8682 37.4042 84.7121L37.3699 84.1282C37.4377 84.0502 37.4887 84.0107 37.5226 83.8936C37.5737 83.8156 37.6079 83.6986 37.6079 83.5828C37.6079 83.4645 37.5737 83.3474 37.5055 83.2308C37.472 83.1528 37.4038 83.0743 37.3375 83.0357L37.3029 82.4895C37.3535 82.4509 37.4042 82.3729 37.4217 82.3339C37.4723 82.2558 37.4723 82.1783 37.4723 82.0617C37.4723 81.9836 37.4552 81.8657 37.4042 81.7885C37.3699 81.7105 37.3375 81.6719 37.2686 81.6329L37.2526 81.0481L37.0835 76.8374C37.0835 76.798 37.0488 76.7594 36.997 76.7199C36.9635 76.7199 36.93 76.7594 36.93 76.8374L36.7609 81.0481L36.7262 81.6329C36.6756 81.6724 36.6261 81.7109 36.5914 81.7885C36.5568 81.8657 36.5232 81.9836 36.5232 82.0617C36.5232 82.1783 36.5396 82.2558 36.5914 82.3339C36.6086 82.3733 36.6604 82.4514 36.6927 82.4895L36.6756 83.0357C36.5914 83.0743 36.54 83.1532 36.4901 83.2308C36.4394 83.3474 36.4048 83.4645 36.4048 83.5828C36.4048 83.6986 36.4212 83.8156 36.4901 83.8936C36.5236 84.0111 36.5571 84.0502 36.6261 84.1282L36.6086 84.7121C36.3705 84.8677 36.0491 85.1027 35.7623 85.3758C35.4397 85.6481 35.1518 85.9992 35.015 86.3503C34.8974 86.7015 34.8642 87.0518 34.8642 87.3644C34.8642 87.5971 34.9312 87.8317 34.9659 87.9877C33.9665 88.6515 32.731 89.5471 31.6292 90.6009C30.4939 91.6917 29.4952 92.8998 29.0039 94.2264C27.7338 97.541 28.6985 100.816 29.1041 101.83H28.8855C28.6654 101.83 28.4963 102.025 28.4963 102.297C28.4963 102.531 28.6654 102.726 28.8855 102.726H28.9697V103.857C27.1583 100.251 21.0333 99.7167 18.9809 104.697L18.9538 99.1591H19.1542C19.4802 99.1591 19.7475 98.8448 19.7475 98.4708C19.7475 98.096 19.4806 97.7865 19.1542 97.7865H18.9439L18.8959 88.256H19.1542C19.4417 88.256 19.6809 87.9855 19.6809 87.6497C19.6809 87.3578 19.5034 87.1153 19.2696 87.0548V84.201H19.4988C19.6436 84.201 19.7673 84.0572 19.7673 83.8814C19.7673 83.7109 19.6436 83.5723 19.4988 83.5723H19.1881C19.337 83.0603 19.5285 82.0801 19.1454 81.0823C18.963 80.6189 18.6099 80.1788 18.1978 79.793C17.8052 79.4186 17.3645 79.0986 17.0111 78.8676C17.0252 78.8018 17.0396 78.7247 17.0446 78.6304C17.0488 78.5147 17.0396 78.3932 16.9916 78.2736C16.9437 78.1407 16.8389 78.0193 16.7231 77.9198C16.6188 77.8264 16.5034 77.7492 16.4219 77.6944L16.4169 77.4788C16.4364 77.4573 16.4558 77.4292 16.4653 77.4016C16.484 77.3639 16.4939 77.3253 16.4939 77.2868C16.4939 77.2412 16.484 77.1925 16.4653 77.1601C16.4459 77.1267 16.4265 77.1044 16.3979 77.082L16.3884 76.8953C16.4074 76.8782 16.4219 76.8567 16.4318 76.8286C16.4459 76.8072 16.4558 76.7739 16.4558 76.7405C16.4558 76.7081 16.4463 76.6695 16.4268 76.6419C16.4173 76.6195 16.3983 76.5972 16.3788 76.5753L16.3697 76.3767L16.3126 74.8682C16.3126 74.8511 16.3031 74.8349 16.2836 74.8349C16.2642 74.8349 16.2547 74.8458 16.2501 74.8682L16.193 76.3767L16.1877 76.5753C16.164 76.5976 16.1454 76.62 16.1347 76.6419C16.1168 76.6695 16.1111 76.7077 16.1111 76.7405C16.1111 76.7739 16.1168 76.8072 16.1305 76.8286C16.1397 76.8567 16.1591 76.8782 16.1682 76.8953L16.164 77.082C16.14 77.1044 16.1111 77.1267 16.1012 77.1601C16.0776 77.1925 16.0681 77.2416 16.0681 77.2868C16.0681 77.3253 16.0776 77.3639 16.097 77.4016C16.1061 77.4292 16.1305 77.4573 16.1499 77.4788L16.14 77.6944C16.054 77.7492 15.939 77.8264 15.8388 77.9198C15.7234 78.0193 15.6186 78.1407 15.5756 78.2736C15.5227 78.3932 15.5132 78.5151 15.5185 78.6304C15.5185 78.7247 15.5371 78.8018 15.5566 78.8676C15.1978 79.0986 14.7575 79.4191 14.3595 79.793C13.957 80.1792 13.594 80.6194 13.4169 81.0823C13.0387 82.0796 13.2208 83.0603 13.3739 83.5723H13.1153C12.9622 83.5723 12.838 83.7109 12.838 83.8814C12.838 84.0567 12.9618 84.201 13.1153 84.201H13.3255V87.0548C13.0955 87.1206 12.9233 87.363 12.9233 87.6497C12.9233 87.9855 13.1682 88.256 13.4592 88.256H13.7079L13.6607 97.7865H13.4592C13.129 97.7865 12.8563 98.0956 12.8563 98.4708C12.8563 98.8452 13.129 99.1591 13.4592 99.1591H13.6607L13.6123 107.639C11.2491 102.009 6.40681 98.0237 0.71373 97.5502V96.8856C0.71373 96.7787 0.677167 96.6743 0.610517 96.598C0.543486 96.5209 0.455507 96.4792 0.360674 96.4792H0.0689355L0 94.4118V165.04H313.777V127.271V126.26H311.773C311.943 125.631 312.058 124.976 312.058 124.284ZM17.2784 85.919V87.0373H15.3155V85.919C15.3155 85.919 15.306 85.8309 15.3776 85.7204C15.4545 85.6099 15.421 85.5227 15.392 85.4122C15.1723 84.7069 16.1823 84.741 16.3019 84.2005C16.4165 84.7406 17.4266 84.7064 17.2118 85.4122C17.1729 85.5227 17.144 85.6099 17.2205 85.7204C17.2971 85.8309 17.2784 85.919 17.2784 85.919ZM48.2263 59.4831V57.4183C48.2263 56.6345 48.6864 55.9756 49.3098 55.7735C49.9367 55.9756 50.3956 56.6345 50.3956 57.4183V59.4362L50.3964 59.4831H48.2263ZM77.7322 88.5252H76.4727V85.3101C76.4727 84.2672 76.7378 83.3921 77.0992 83.1282C77.4648 83.3921 77.7322 84.2672 77.7322 85.3101V88.5252ZM78.2083 88.5212V85.4885C78.2083 84.3377 78.8839 83.3694 79.7995 83.073C80.72 83.3694 81.3941 84.3377 81.3941 85.4885V88.452L81.3953 88.5212H78.2083ZM83.2516 88.5348H81.9925V85.3105C81.9925 84.2676 82.2576 83.3926 82.6232 83.1287C82.9854 83.3926 83.2512 84.2676 83.2512 85.3105V88.5348H83.2516ZM164.923 88.5348H163.664V85.3105C163.664 84.2676 163.93 83.3926 164.292 83.1287C164.658 83.3926 164.923 84.2676 164.923 85.3105V88.5348H164.923ZM168.708 88.5212H165.521L165.522 88.452V85.4885C165.522 84.3377 166.197 83.3694 167.117 83.073C168.032 83.3694 168.708 84.3377 168.708 85.4885V88.5212H168.708ZM170.443 88.5252H169.183V85.3101C169.183 84.2672 169.451 83.3921 169.816 83.1282C170.178 83.3921 170.443 84.2672 170.443 85.3101V88.5252ZM198.69 59.4831H196.52L196.521 59.4362V57.4183C196.521 56.6345 196.98 55.9756 197.606 55.7735C198.23 55.9756 198.69 56.6345 198.69 57.4183V59.4831H198.69ZM231.6 85.919V87.0373H229.637V85.919C229.637 85.919 229.619 85.8309 229.695 85.7204C229.772 85.6099 229.743 85.5227 229.704 85.4122C229.489 84.7069 230.499 84.741 230.614 84.2005C230.734 84.7406 231.744 84.7064 231.524 85.4122C231.495 85.5227 231.461 85.6099 231.539 85.7204C231.61 85.8309 231.6 85.919 231.6 85.919ZM294.672 122.086H293.413V118.062C293.413 117.019 293.679 116.143 294.041 115.88C294.406 116.143 294.672 117.019 294.672 118.062L294.672 122.086ZM298.39 122.155H295.975V122.086H295.205V117.627C295.205 116.477 295.879 115.508 296.799 115.212C297.714 115.508 298.39 116.477 298.39 117.627L298.39 122.155ZM300.192 122.155H298.932V118.062C298.932 117.019 299.2 116.143 299.565 115.88C299.927 116.143 300.192 117.019 300.192 118.062V122.155Z" fill="#00133F"/>
<path opacity="0.3" fill-rule="evenodd" clip-rule="evenodd" d="M0 87.1986V89.5694C1.20732 88.9215 2.13586 87.6458 2.38342 86.0233C2.68963 84.012 1.87116 82.0761 0.455507 81.0608C1.06069 82.0695 1.33224 83.3426 1.13382 84.6503C0.982616 85.6498 0.573193 86.5231 0 87.1986Z" fill="#00133F"/>
<path opacity="0.3" fill-rule="evenodd" clip-rule="evenodd" d="M390 67.2706C389.679 67.1163 389.361 66.9619 389.033 66.8098C381.038 63.1099 377.074 58.082 375.133 54.3904C376.995 53.4544 378.297 51.3199 378.297 48.833C378.297 45.8699 376.449 43.4075 374.01 42.8775L373.923 40.2029C374.597 39.8649 375.069 39.0943 375.069 38.1943C375.069 37.2381 374.534 36.4333 373.791 36.1339L373.585 29.7163C375.947 30.3003 378.465 30.2003 380.917 29.249C384.6 27.8177 387.402 24.7972 388.974 21.0745C387.662 22.3668 386.125 23.3931 384.391 24.0673C377.131 26.8844 369.251 22.3905 366.801 14.034C365.586 9.89303 365.925 5.59115 367.458 1.96001C363.282 6.07907 361.458 12.8442 363.327 19.2157C364.877 24.5096 368.613 28.2456 372.986 29.5616L372.646 36.0948C371.848 36.3561 371.26 37.1921 371.26 38.1943C371.26 39.1052 371.743 39.886 372.431 40.2165L372.294 42.8337C369.732 43.2458 367.759 45.7704 367.759 48.833C367.759 51.4282 369.178 53.6359 371.169 54.5017C369.208 58.1824 365.242 63.1476 357.328 66.8098C342.846 73.5088 336.451 82.3115 334.471 92.8595V91.8473C334.658 91.6916 334.81 91.4576 334.81 91.1459C334.81 90.7167 334.54 90.3265 334.201 90.2494V85.9203H334.54C334.759 85.9203 334.946 85.6875 334.946 85.4539C334.946 85.1799 334.759 84.9866 334.54 84.9866H334.066C334.303 84.2058 334.574 82.7236 333.998 81.2037C333.726 80.5014 333.185 79.8382 332.574 79.2551C331.966 78.6694 331.304 78.2012 330.779 77.851C330.797 77.7729 330.813 77.6164 330.813 77.4989C330.831 77.3438 330.813 77.1487 330.747 76.9536C330.661 76.7594 330.507 76.5639 330.339 76.4083C330.17 76.2916 330.001 76.1351 329.882 76.0571L329.865 75.7454C329.898 75.706 329.933 75.6674 329.95 75.6279C329.967 75.5885 330.001 75.5104 330.001 75.4723C330.001 75.3943 329.967 75.3158 329.933 75.2781C329.916 75.1992 329.882 75.1606 329.831 75.1606V74.848C329.865 74.848 329.882 74.8095 329.898 74.77C329.916 74.7314 329.933 74.6911 329.933 74.6148C329.933 74.5754 329.916 74.5359 329.898 74.4973C329.865 74.4579 329.849 74.4184 329.814 74.3798L329.798 74.0682L329.713 71.807C329.713 71.7684 329.694 71.7281 329.662 71.7281C329.645 71.7281 329.627 71.7684 329.627 71.807L329.527 74.0682V74.3798C329.492 74.4184 329.458 74.4579 329.441 74.4973C329.424 74.5359 329.407 74.5754 329.407 74.6148C329.407 74.6911 329.424 74.7314 329.441 74.77C329.458 74.8095 329.475 74.848 329.492 74.848V75.1606C329.458 75.1606 329.424 75.1992 329.391 75.2781C329.357 75.3158 329.34 75.3947 329.34 75.4723C329.34 75.5109 329.357 75.5889 329.391 75.6279C329.391 75.6674 329.424 75.706 329.458 75.7454V76.0571C329.322 76.1351 329.153 76.2916 329.001 76.4083C328.815 76.5639 328.68 76.7594 328.594 76.9536C328.509 77.1487 328.509 77.3056 328.509 77.4989C328.509 77.6164 328.543 77.7729 328.577 77.851C328.019 78.2012 327.359 78.6694 326.749 79.2551C326.139 79.8382 325.597 80.5019 325.327 81.2037C324.75 82.7236 325.037 84.2058 325.258 84.9866H324.868C324.649 84.9866 324.462 85.1799 324.462 85.4539C324.462 85.6875 324.649 85.9203 324.868 85.9203H325.19V90.2494C324.852 90.3265 324.58 90.7167 324.58 91.1459C324.58 91.4576 324.75 91.6912 324.953 91.8473V95.357H323.276V90.7171H320.956V89.587H321.159C321.363 89.587 321.533 89.391 321.533 89.1573C321.533 88.8851 321.363 88.69 321.159 88.69H320.956C321.329 87.6761 322.311 84.4004 321.042 81.0867C320.55 79.7615 319.552 78.5524 318.415 77.4613C317.298 76.4082 316.078 75.5109 315.08 74.848C315.13 74.6915 315.164 74.4583 315.181 74.1852C315.197 73.9121 315.164 73.5618 315.028 73.2107C314.893 72.8595 314.589 72.5084 314.284 72.2353C313.979 71.9621 313.673 71.7285 313.435 71.5724L313.402 70.9885C313.47 70.9096 313.538 70.871 313.572 70.754C313.606 70.6759 313.639 70.5589 313.639 70.4414C313.639 70.3239 313.606 70.2077 313.555 70.0911C313.504 70.0131 313.435 69.9355 313.369 69.896L313.351 69.3507C313.402 69.3112 313.435 69.2332 313.47 69.1942C313.505 69.1162 313.522 69.0386 313.522 68.9211C313.522 68.8439 313.505 68.7269 313.453 68.648C313.419 68.5708 313.369 68.5313 313.317 68.4928L313.301 67.908L313.131 63.6973C313.131 63.6578 313.098 63.6184 313.047 63.5798C312.996 63.5798 312.962 63.6184 312.962 63.6973L312.793 67.908L312.775 68.4928C312.725 68.5313 312.657 68.5708 312.624 68.648C312.589 68.7269 312.556 68.8439 312.556 68.9211C312.556 69.0386 312.589 69.1162 312.624 69.1942C312.657 69.2337 312.692 69.3117 312.742 69.3507L312.725 69.896C312.64 69.9355 312.59 70.0135 312.521 70.0911C312.488 70.2077 312.454 70.3239 312.454 70.4414C312.454 70.5589 312.488 70.6759 312.521 70.754C312.556 70.8715 312.608 70.9096 312.674 70.9885L312.657 71.5724C312.42 71.7281 312.097 71.9621 311.811 72.2353C311.488 72.5084 311.2 72.8595 311.066 73.2107C310.93 73.5618 310.897 73.9121 310.897 74.1852C310.93 74.4583 310.964 74.6911 311.013 74.848C310.015 75.5109 308.779 76.4082 307.678 77.4613C306.543 78.5519 305.543 79.761 305.036 81.0867C303.783 84.4004 304.748 87.6761 305.138 88.69H304.934C304.731 88.69 304.545 88.8851 304.545 89.1573C304.545 89.391 304.731 89.587 304.934 89.587H305.02V90.7171H302.818V95.357H301.852L301.835 83.7766H302.361C302.715 83.7766 303.004 83.4255 303.004 83.0362C303.004 82.6079 302.714 82.2958 302.361 82.2958H301.819L301.768 71.1836H301.954C302.258 71.1836 302.529 70.9105 302.529 70.5593C302.529 70.1696 302.258 69.8965 301.954 69.8965H301.75L301.716 60.8903H301.954C302.225 60.8903 302.462 60.6176 302.462 60.3055C302.462 60.0324 302.292 59.7983 302.072 59.7602V57.9654L302.09 57.8878C302.072 57.8488 302.072 57.8102 302.072 57.7703V57.0303H302.276C302.428 57.0303 302.529 56.9128 302.529 56.7568C302.529 56.6007 302.428 56.4451 302.276 56.4451H301.986C302.122 55.9769 302.308 55.0418 301.954 54.1063C301.785 53.6771 301.445 53.2475 301.058 52.8972C300.684 52.5075 300.26 52.234 299.921 52.0003C299.939 51.9617 299.956 51.8833 299.956 51.7662C299.956 51.6882 299.956 51.5724 299.921 51.4541C299.853 51.2984 299.769 51.1818 299.651 51.1034C299.549 51.0258 299.447 50.9482 299.38 50.9087L299.363 50.6751C299.38 50.6751 299.412 50.6365 299.412 50.5966C299.431 50.5966 299.447 50.5576 299.447 50.5186C299.447 50.48 299.431 50.4401 299.412 50.4015C299.396 50.3625 299.38 50.3235 299.345 50.3235V50.1288C299.363 50.1288 299.38 50.0903 299.38 50.0903C299.396 50.0504 299.412 50.0114 299.412 49.9719C299.412 49.9719 299.396 49.9333 299.38 49.8939C299.38 49.8557 299.345 49.8557 299.328 49.8557V49.6606L299.277 48.2179C299.277 48.2179 299.261 48.1789 299.245 48.1789C299.227 48.1789 299.21 48.2179 299.21 48.2179L299.159 49.6606L299.141 49.8557C299.125 49.8557 299.109 49.8557 299.109 49.8939C299.074 49.9333 299.074 49.9719 299.074 49.9719C299.074 50.0114 299.074 50.0504 299.09 50.0903C299.109 50.0903 299.109 50.1288 299.141 50.1288V50.3235C299.109 50.3235 299.074 50.3625 299.074 50.4015C299.041 50.4401 299.041 50.48 299.041 50.5186C299.041 50.5576 299.041 50.5966 299.074 50.5966C299.074 50.6365 299.09 50.6751 299.109 50.6751V50.9087C299.024 50.9482 298.921 51.0262 298.82 51.1034C298.701 51.1818 298.617 51.298 298.567 51.4541C298.532 51.5724 298.515 51.6882 298.515 51.7662C298.515 51.8837 298.532 51.9617 298.549 52.0003C298.211 52.234 297.787 52.5075 297.414 52.8972C297.042 53.2475 296.703 53.6767 296.533 54.1063C296.162 55.0418 296.347 55.9769 296.482 56.4451H296.246C296.094 56.4451 295.991 56.6003 295.991 56.7568C295.991 56.9133 296.094 57.0303 296.246 57.0303H296.45V59.7602C296.23 59.7983 296.06 60.0324 296.06 60.3055C296.06 60.6176 296.296 60.8903 296.567 60.8903H296.804L296.772 69.8965H296.567C296.263 69.8965 295.991 70.1696 295.991 70.5593C295.991 70.9105 296.263 71.1836 296.567 71.1836H296.753L296.703 82.2958H296.162C295.805 82.2958 295.518 82.6083 295.518 83.0362C295.518 83.4259 295.805 83.7766 296.162 83.7766H296.703L296.668 103.857H294.841V102.726H295.026C295.247 102.726 295.416 102.531 295.416 102.297C295.416 102.024 295.247 101.829 295.026 101.829H294.825C295.213 100.815 296.195 97.5406 294.925 94.226C294.433 92.8998 293.417 91.6916 292.282 90.6005C291.182 89.5466 289.963 88.651 288.946 87.9873C288.997 87.8317 289.049 87.5967 289.049 87.3639C289.065 87.0513 289.032 86.7011 288.913 86.3499C288.76 85.9988 288.472 85.6476 288.167 85.3754C287.862 85.1023 287.558 84.8678 287.32 84.7117L287.286 84.1278C287.354 84.0497 287.405 84.0103 287.439 83.8932C287.49 83.8152 287.524 83.6982 287.524 83.5824C287.524 83.4641 287.49 83.347 287.422 83.2304C287.388 83.1523 287.32 83.0739 287.254 83.0353L287.219 82.4891C287.27 82.4505 287.32 82.3725 287.338 82.3335C287.389 82.2554 287.389 82.1778 287.389 82.0612C287.389 81.9832 287.371 81.8653 287.32 81.7881C287.286 81.7101 287.254 81.6715 287.185 81.6325L287.169 81.0477L287 76.837C287 76.7975 286.965 76.7589 286.913 76.7195C286.88 76.7195 286.846 76.7589 286.846 76.837L286.677 81.0477L286.642 81.6325C286.592 81.6719 286.542 81.7105 286.508 81.7881C286.473 81.8653 286.439 81.9832 286.439 82.0612C286.439 82.1778 286.456 82.2554 286.508 82.3335C286.525 82.3729 286.577 82.4509 286.609 82.4891L286.592 83.0353C286.508 83.0739 286.456 83.1528 286.406 83.2304C286.356 83.347 286.321 83.4641 286.321 83.5824C286.321 83.6982 286.337 83.8152 286.406 83.8932C286.44 84.0107 286.473 84.0497 286.542 84.1278L286.525 84.7117C286.287 84.8673 285.965 85.1023 285.678 85.3754C285.356 85.6476 285.068 85.9988 284.931 86.3499C284.814 86.7011 284.78 87.0513 284.78 87.3639C284.78 87.5967 284.847 87.8312 284.882 87.9873C283.883 88.651 282.647 89.5466 281.545 90.6005C280.41 91.6912 279.411 92.8994 278.92 94.226C277.65 97.5406 278.615 100.815 279.02 101.829H278.802C278.582 101.829 278.412 102.024 278.412 102.297C278.412 102.53 278.582 102.726 278.802 102.726H278.886V103.857C277.074 100.25 270.95 99.7163 268.897 104.697L268.87 99.1587H269.07C269.396 99.1587 269.664 98.8443 269.664 98.4704C269.664 98.0956 269.397 97.7861 269.07 97.7861H268.86L268.812 88.2556H269.07C269.358 88.2556 269.597 87.9851 269.597 87.6493C269.597 87.3573 269.42 87.1149 269.186 87.0544V84.2005H269.415C269.56 84.2005 269.684 84.0567 269.684 83.8809C269.684 83.7104 269.56 83.5719 269.415 83.5719H269.104C269.253 83.0599 269.445 82.0796 269.062 81.0819C268.879 80.6185 268.526 80.1784 268.114 79.7926C267.721 79.4182 267.281 79.0982 266.927 78.8672C266.941 78.8014 266.956 78.7242 266.961 78.63C266.965 78.5143 266.956 78.3928 266.908 78.2731C266.86 78.1403 266.755 78.0189 266.639 77.9193C266.535 77.826 266.42 77.7488 266.338 77.694L266.333 77.4783C266.353 77.4569 266.372 77.4288 266.381 77.4012C266.4 77.3635 266.41 77.3249 266.41 77.2863C266.41 77.2407 266.4 77.1921 266.381 77.1596C266.362 77.1263 266.343 77.104 266.314 77.0816L266.305 76.8949C266.324 76.8778 266.338 76.8563 266.348 76.8282C266.362 76.8068 266.372 76.7734 266.372 76.7401C266.372 76.7077 266.362 76.6691 266.343 76.6415C266.333 76.6191 266.314 76.5968 266.295 76.5748L266.286 76.3763L266.229 74.8678C266.229 74.8507 266.219 74.8344 266.2 74.8344C266.18 74.8344 266.171 74.8454 266.166 74.8678L266.109 76.3763L266.104 76.5748C266.08 76.5972 266.062 76.6196 266.051 76.6415C266.033 76.6691 266.027 76.7072 266.027 76.7401C266.027 76.7734 266.033 76.8068 266.047 76.8282C266.056 76.8563 266.075 76.8778 266.084 76.8949L266.08 77.0816C266.056 77.104 266.027 77.1263 266.017 77.1596C265.994 77.1921 265.984 77.2412 265.984 77.2863C265.984 77.3249 265.994 77.3635 266.013 77.4012C266.022 77.4288 266.047 77.4569 266.066 77.4783L266.056 77.694C265.97 77.7488 265.855 77.826 265.755 77.9193C265.64 78.0189 265.535 78.1403 265.492 78.2731C265.439 78.3928 265.429 78.5147 265.435 78.63C265.435 78.7242 265.453 78.8014 265.473 78.8672C265.114 79.0982 264.674 79.4186 264.276 79.7926C263.873 80.1788 263.51 80.6189 263.333 81.0819C262.955 82.0792 263.137 83.0599 263.29 83.5719H263.031C262.878 83.5719 262.754 83.7104 262.754 83.8809C262.754 84.0563 262.878 84.2005 263.031 84.2005H263.242V87.0544C263.012 87.1202 262.839 87.3626 262.839 87.6493C262.839 87.9851 263.084 88.2556 263.375 88.2556H263.624L263.577 97.7861H263.375C263.045 97.7861 262.772 98.0951 262.772 98.4704C262.772 98.8448 263.045 99.1587 263.375 99.1587H263.577L263.528 107.639C261.165 102.008 256.323 98.0232 250.63 97.5498V96.8852C250.63 96.7782 250.593 96.6739 250.527 96.5976C250.46 96.5204 250.372 96.4788 250.277 96.4788H249.987L249.759 89.6589C251.045 89.0416 252.043 87.7177 252.301 86.0233C252.607 84.012 251.789 82.0761 250.373 81.0608C250.978 82.0695 251.25 83.3426 251.052 84.6503C250.651 87.2894 248.461 89.0556 246.171 88.5932C245.622 88.4827 245.12 88.2551 244.673 87.9373C245.294 88.9723 246.259 89.7312 247.422 89.9657C248.143 90.1121 248.844 90.0153 249.493 89.761L249.26 96.4788H248.977C248.777 96.4788 248.613 96.6673 248.613 96.8975V97.5362C242.473 97.9325 237.293 102.411 235.079 108.661C234.77 108.253 234.407 107.866 234.024 107.497C233.281 106.785 232.457 106.179 231.77 105.731C231.804 105.626 231.839 105.467 231.839 105.31C231.85 105.1 231.828 104.862 231.748 104.625C231.644 104.388 231.45 104.151 231.244 103.966C231.038 103.781 230.832 103.624 230.671 103.518L230.648 103.123C230.694 103.071 230.728 103.045 230.752 102.965C230.786 102.913 230.809 102.833 230.809 102.755C230.809 102.675 230.786 102.596 230.739 102.517C230.717 102.465 230.671 102.412 230.626 102.385L230.602 102.016C230.636 101.99 230.671 101.937 230.683 101.911C230.717 101.858 230.717 101.806 230.717 101.727C230.717 101.674 230.705 101.594 230.671 101.543C230.647 101.49 230.626 101.464 230.579 101.437L230.568 101.042L230.454 98.1968C230.454 98.1701 230.43 98.1447 230.396 98.1171C230.373 98.1171 230.351 98.1447 230.351 98.1968L230.236 101.042L230.212 101.437C230.179 101.464 230.145 101.49 230.122 101.543C230.098 101.594 230.076 101.674 230.076 101.727C230.076 101.806 230.087 101.858 230.122 101.911C230.133 101.938 230.168 101.991 230.19 102.016L230.179 102.385C230.122 102.412 230.087 102.465 230.053 102.517C230.019 102.596 229.996 102.675 229.996 102.755C229.996 102.833 230.007 102.913 230.053 102.965C230.076 103.045 230.099 103.071 230.145 103.123L230.134 103.518C229.973 103.624 229.756 103.782 229.562 103.966C229.344 104.151 229.149 104.388 229.057 104.625C228.977 104.862 228.954 105.099 228.954 105.31C228.954 105.467 229 105.626 229.023 105.731C228.349 106.179 227.513 106.785 226.769 107.497C226.001 108.235 225.327 109.051 224.995 109.947C224.783 110.499 224.664 111.049 224.608 111.575C222.38 110.579 220.496 109.316 218.988 107.839C219.051 107.698 219.096 107.546 219.096 107.374C219.096 106.956 218.874 106.595 218.557 106.436L218.332 102.384H218.068L217.841 106.436C217.524 106.595 217.306 106.956 217.306 107.374C217.306 107.546 217.347 107.697 217.412 107.839C215.766 109.442 213.652 110.823 211.171 111.848C207.36 113.418 204.816 116.23 204.816 119.443C204.816 120.362 205.027 121.253 205.412 122.086H203.922V114.69H204.011C204.264 114.69 204.47 114.455 204.47 114.162V113.863C204.47 113.574 204.264 113.335 204.011 113.335H203.41C203.435 113.139 203.452 112.945 203.452 112.738C203.452 111.327 202.803 110.088 201.831 109.398C201.226 108.971 200.711 108.416 200.304 107.761C200.382 107.678 200.427 107.559 200.427 107.429C200.427 107.246 200.332 107.084 200.192 107.017L200.091 105.232H199.976L199.877 107.017C199.737 107.084 199.641 107.246 199.641 107.429C199.641 107.559 199.688 107.677 199.765 107.761C199.354 108.413 198.837 108.972 198.24 109.398C197.267 110.088 196.616 111.327 196.616 112.738C196.616 112.946 196.633 113.139 196.662 113.335H196.04C195.787 113.335 195.584 113.574 195.584 113.863V114.162C195.584 114.455 195.787 114.69 196.04 114.69H196.144V122.445C195.629 120.393 194.286 118.75 192.549 118.024C192.551 117.99 192.557 117.959 192.557 117.925C192.557 116.938 192.01 116.108 191.248 115.789L190.968 114.815C191.024 114.726 191.061 114.624 191.061 114.509C191.061 114.285 190.942 114.097 190.777 114.008L190.603 110.935C190.603 110.922 190.589 110.911 190.574 110.911C190.565 110.911 190.551 110.921 190.551 110.935L190.378 114.008C190.214 114.097 190.095 114.285 190.095 114.509C190.095 114.624 190.132 114.725 190.183 114.813L189.906 115.789C189.144 116.108 188.598 116.94 188.598 117.925C188.598 117.958 188.605 117.99 188.605 118.024C186.376 118.955 184.773 121.393 184.773 124.283C184.773 124.975 184.889 125.631 185.059 126.26H183.055V127.271H182.85V165.04H390V67.2706ZM197.901 122.155H196.641V118.062C196.641 117.019 196.906 116.143 197.268 115.88C197.633 116.143 197.901 117.019 197.901 118.062V122.155ZM201.629 122.086H200.858V122.155H198.443V117.627C198.443 116.477 199.119 115.508 200.034 115.212C200.955 115.508 201.629 116.477 201.629 117.627L201.629 122.086ZM203.42 122.086H202.161V118.062C202.161 117.019 202.426 116.143 202.792 115.88C203.154 116.143 203.42 117.019 203.42 118.062V122.086H203.42ZM267.195 85.919V87.0373H265.232V85.919C265.232 85.919 265.223 85.8309 265.294 85.7204C265.371 85.61 265.338 85.5227 265.309 85.4122C265.089 84.7069 266.099 84.7411 266.219 84.2005C266.333 84.7406 267.344 84.7064 267.129 85.4122C267.09 85.5227 267.061 85.61 267.137 85.7204C267.214 85.8309 267.195 85.919 267.195 85.919ZM298.144 59.4831V57.4183C298.144 56.6345 298.604 55.9756 299.227 55.7735C299.854 55.9756 300.313 56.6345 300.313 57.4183V59.4362L300.314 59.4831H298.144ZM327.65 88.5252H326.39V85.3101C326.39 84.2672 326.655 83.3922 327.017 83.1283C327.382 83.3922 327.65 84.2672 327.65 85.3101V88.5252ZM328.126 88.5213V85.4885C328.126 84.3377 328.801 83.3694 329.717 83.073C330.637 83.3694 331.311 84.3377 331.311 85.4885V88.452L331.313 88.5213H328.126ZM333.169 88.5349H331.91V85.3105C331.91 84.2676 332.175 83.3926 332.54 83.1287C332.903 83.3926 333.169 84.2676 333.169 85.3105V88.5349H333.169Z" fill="#00133F"/>
<path fill-rule="evenodd" clip-rule="evenodd" d="M387.948 127.288C388.122 126.644 388.241 125.973 388.241 125.264C388.241 122.304 386.599 119.807 384.317 118.853C384.317 118.82 384.324 118.787 384.324 118.753C384.324 117.744 383.765 116.892 382.985 116.566L382.701 115.566C382.754 115.477 382.791 115.373 382.791 115.255C382.791 115.026 382.669 114.833 382.501 114.742L382.324 111.596C382.324 111.582 382.31 111.571 382.3 111.571C382.285 111.571 382.27 111.581 382.27 111.596L382.093 114.742C381.924 114.833 381.801 115.026 381.801 115.255C381.801 115.373 381.84 115.478 381.896 115.569L381.611 116.566C380.829 116.892 380.269 117.742 380.269 118.753C380.269 118.787 380.275 118.82 380.277 118.853C378.499 119.597 377.124 121.28 376.596 123.382V115.439H376.702C376.961 115.439 377.17 115.199 377.17 114.899V114.592C377.17 114.297 376.961 114.053 376.702 114.053H376.066C376.095 113.852 376.112 113.654 376.112 113.441C376.112 111.997 375.446 110.728 374.449 110.021C373.838 109.584 373.309 109.012 372.888 108.344C372.966 108.259 373.015 108.138 373.015 108.005C373.015 107.817 372.917 107.651 372.773 107.582L372.671 105.755H372.553L372.451 107.582C372.307 107.651 372.21 107.817 372.21 108.005C372.21 108.138 372.256 108.259 372.335 108.344C371.919 109.014 371.391 109.583 370.772 110.021C369.777 110.728 369.112 111.997 369.112 113.441C369.112 113.654 369.13 113.852 369.155 114.053H368.54C368.28 114.053 368.07 114.297 368.07 114.592V114.899C368.07 115.199 368.281 115.439 368.54 115.439H368.631V123.012H367.105C367.5 122.16 367.715 121.248 367.715 120.306C367.715 117.017 365.111 114.137 361.208 112.529C358.668 111.479 356.503 110.065 354.818 108.423C354.883 108.278 354.926 108.123 354.926 107.948C354.926 107.519 354.702 107.15 354.378 106.987L354.146 102.838H353.876L353.646 106.987C353.321 107.15 353.093 107.519 353.093 107.948C353.093 108.123 353.139 108.278 353.203 108.423C351.659 109.935 349.73 111.229 347.449 112.25C347.392 111.71 347.27 111.147 347.054 110.582C346.713 109.664 346.022 108.829 345.236 108.072C344.474 107.345 343.619 106.723 342.928 106.265C342.951 106.157 342.998 105.995 342.998 105.834C342.998 105.618 342.975 105.375 342.894 105.133C342.8 104.889 342.6 104.646 342.377 104.458C342.178 104.268 341.956 104.107 341.791 103.998L341.779 103.594C341.827 103.541 341.85 103.513 341.874 103.432C341.921 103.379 341.932 103.297 341.932 103.217C341.932 103.136 341.908 103.054 341.874 102.973C341.839 102.92 341.803 102.865 341.745 102.838L341.733 102.46C341.756 102.434 341.791 102.38 341.804 102.352C341.839 102.298 341.851 102.245 341.851 102.163C341.851 102.109 341.827 102.028 341.804 101.976C341.779 101.92 341.745 101.894 341.711 101.866L341.686 101.462L341.569 98.5484C341.569 98.4954 341.546 98.4673 341.524 98.4673C341.487 98.4949 341.463 98.5217 341.463 98.5484L341.347 101.462L341.335 101.866C341.288 101.894 341.265 101.92 341.242 101.976C341.206 102.028 341.193 102.109 341.193 102.163C341.193 102.245 341.193 102.298 341.229 102.352C341.242 102.38 341.276 102.434 341.312 102.46L341.288 102.838C341.242 102.865 341.194 102.92 341.172 102.973C341.124 103.054 341.1 103.136 341.1 103.217C341.1 103.297 341.124 103.379 341.159 103.432C341.183 103.514 341.218 103.541 341.265 103.594L341.242 103.998C341.077 104.107 340.866 104.268 340.655 104.458C340.444 104.646 340.245 104.889 340.14 105.133C340.057 105.375 340.034 105.617 340.046 105.834C340.046 105.995 340.082 106.157 340.116 106.265C339.413 106.723 338.57 107.345 337.808 108.072C337.416 108.451 337.044 108.848 336.727 109.265C334.46 102.865 329.156 98.2788 322.868 97.8733V97.2197C322.868 96.9834 322.7 96.7905 322.496 96.7905H322.205L321.967 89.9118C322.63 90.1722 323.35 90.2709 324.087 90.1214C325.278 89.8807 326.266 89.1048 326.903 88.0439C326.445 88.3696 325.93 88.6028 325.368 88.7159C323.023 89.1889 320.78 87.3801 320.371 84.6779C320.168 83.3395 320.446 82.0358 321.065 81.0025C319.615 82.0424 318.777 84.0247 319.091 86.0843C319.355 87.8194 320.377 89.1753 321.694 89.8075L321.461 96.791H321.164C321.068 96.791 320.977 96.8343 320.908 96.9124C320.839 96.9908 320.802 97.0978 320.802 97.207V97.8882C314.973 98.3731 310.014 102.454 307.594 108.219L307.544 99.5352H307.751C308.089 99.5352 308.368 99.213 308.368 98.8307C308.368 98.4463 308.089 98.1298 307.751 98.1298H307.544L307.496 88.37H307.751C308.049 88.37 308.299 88.0921 308.299 87.7493C308.299 87.4556 308.123 87.2074 307.887 87.139V84.2172H308.103C308.26 84.2172 308.386 84.0695 308.386 83.8906C308.386 83.7157 308.26 83.5732 308.103 83.5732H307.838C307.995 83.0493 308.181 82.0454 307.794 81.0236C307.612 80.5497 307.241 80.099 306.829 79.7032C306.421 79.32 305.971 78.9925 305.603 78.7554C305.623 78.6883 305.642 78.6089 305.642 78.5125C305.647 78.3941 305.638 78.2692 305.583 78.1469C305.539 78.0106 305.432 77.8865 305.314 77.7852C305.211 77.6892 305.094 77.6103 305.005 77.5542L304.995 77.3337C305.015 77.3113 305.039 77.2828 305.05 77.2543C305.07 77.2153 305.079 77.1767 305.079 77.1368C305.079 77.0904 305.07 77.0404 305.045 77.0067C305.035 76.9725 305.005 76.9496 304.981 76.9273L304.976 76.7357C304.985 76.7177 305.005 76.6958 305.015 76.6669C305.029 76.6454 305.035 76.6108 305.035 76.5775C305.035 76.5437 305.029 76.5043 305.011 76.4766C305 76.4534 304.981 76.431 304.957 76.4078L304.951 76.2044L304.893 74.6595C304.888 74.6372 304.879 74.6262 304.858 74.6262C304.839 74.6262 304.829 74.6424 304.829 74.6595L304.77 76.2044L304.761 76.4078C304.741 76.4315 304.722 76.4534 304.712 76.4766C304.692 76.5043 304.682 76.5437 304.682 76.5775C304.682 76.6108 304.692 76.6454 304.706 76.6669C304.717 76.6958 304.731 76.7177 304.751 76.7357L304.741 76.9273C304.712 76.9496 304.692 76.9725 304.672 77.0067C304.653 77.0404 304.643 77.0899 304.643 77.1368C304.643 77.1767 304.653 77.2153 304.672 77.2543C304.682 77.2824 304.701 77.3113 304.722 77.3337L304.717 77.5542C304.633 77.6103 304.515 77.6897 304.408 77.7852C304.289 77.8865 304.182 78.011 304.133 78.1469C304.083 78.2692 304.075 78.3941 304.079 78.5125C304.083 78.6089 304.099 78.6879 304.113 78.7554C303.75 78.9925 303.299 79.32 302.897 79.7032C302.475 80.0986 302.113 80.5497 301.927 81.0236C301.535 82.0454 301.731 83.0493 301.883 83.5732H301.565C301.417 83.5732 301.29 83.7152 301.29 83.8906C301.29 84.0695 301.417 84.2172 301.565 84.2172H301.8V87.139C301.56 87.2021 301.378 87.4503 301.378 87.7493C301.378 88.0921 301.623 88.37 301.918 88.37H302.182L302.133 98.1298H301.918C301.583 98.1298 301.31 98.4463 301.31 98.8307C301.31 99.213 301.583 99.5352 301.918 99.5352H302.123L302.096 105.207C299.994 100.106 293.722 100.653 291.867 104.347V103.188H291.953C292.179 103.188 292.351 102.988 292.351 102.749C292.351 102.469 292.179 102.269 291.953 102.269H291.729C292.145 101.232 293.132 97.8777 291.831 94.4837C291.329 93.1256 290.306 91.8881 289.143 90.7711C288.015 89.6913 286.75 88.7747 285.727 88.0952C285.761 87.9356 285.83 87.6953 285.83 87.4573C285.83 87.1368 285.796 86.7782 285.675 86.4192C285.535 86.0597 285.24 85.7003 284.91 85.4214C284.617 85.1418 284.287 84.9015 284.044 84.7419L284.026 84.1444C284.097 84.0638 284.131 84.0239 284.165 83.9037C284.236 83.8235 284.252 83.7039 284.252 83.5846C284.252 83.4641 284.217 83.3444 284.165 83.2247C284.114 83.1453 284.061 83.0647 283.975 83.0248L283.957 82.4659C283.991 82.426 284.044 82.347 284.061 82.3063C284.114 82.2261 284.131 82.1471 284.131 82.027C284.131 81.9477 284.097 81.8262 284.061 81.7478C284.026 81.6676 283.975 81.6281 283.923 81.5882L283.888 80.9898L283.714 76.6774C283.714 76.5972 283.68 76.5569 283.646 76.5569C283.593 76.5976 283.558 76.6375 283.558 76.6774L283.384 80.9898L283.368 81.5882C283.297 81.6281 283.264 81.668 283.229 81.7478C283.177 81.8262 283.159 81.9477 283.159 82.027C283.159 82.1467 283.159 82.2261 283.211 82.3063C283.229 82.347 283.281 82.426 283.333 82.4659L283.297 83.0248C283.229 83.0647 283.159 83.1453 283.125 83.2247C283.055 83.3444 283.02 83.4641 283.02 83.5846C283.02 83.7034 283.056 83.8235 283.107 83.9037C283.143 84.0234 283.195 84.0638 283.264 84.1444L283.229 84.7419C282.986 84.9015 282.674 85.1418 282.363 85.4214C282.051 85.7007 281.755 86.0597 281.599 86.4192C281.477 86.7782 281.443 87.1368 281.459 87.4573C281.459 87.6953 281.512 87.9356 281.564 88.0952C280.523 88.7751 279.274 89.6917 278.149 90.7711C276.986 91.8881 275.945 93.1256 275.441 94.4837C274.141 97.8777 275.147 101.232 275.544 102.269H275.338C275.111 102.269 274.938 102.469 274.938 102.749C274.938 102.988 275.111 103.188 275.338 103.188H275.528V104.347H273.656L273.621 83.7832H274.175C274.54 83.7832 274.834 83.4242 274.834 83.0252C274.834 82.5873 274.54 82.2673 274.175 82.2673H273.621L273.569 70.8881H273.76C274.072 70.8881 274.35 70.608 274.35 70.2485C274.35 69.8496 274.072 69.5703 273.76 69.5703H273.55L273.517 60.3471H273.76C274.038 60.3471 274.28 60.0679 274.28 59.7483C274.28 59.4686 274.105 59.2288 273.88 59.1898V56.3947H274.089C274.245 56.3947 274.35 56.2746 274.35 56.1146C274.35 55.9545 274.245 55.7954 274.089 55.7954H273.847C273.984 55.3158 274.175 54.3584 273.795 53.4005C273.62 52.9608 273.273 52.5211 272.892 52.1625C272.51 51.7636 272.076 51.4834 271.73 51.2441C271.747 51.2042 271.765 51.1244 271.765 51.0039C271.765 50.9241 271.747 50.8057 271.711 50.6843C271.659 50.5247 271.574 50.4055 271.452 50.3252C271.349 50.2459 271.243 50.1666 271.156 50.1258V49.8864C271.175 49.8864 271.192 49.847 271.192 49.8062C271.226 49.8062 271.226 49.7663 271.226 49.726C271.226 49.6865 271.226 49.6457 271.192 49.6067C271.192 49.5668 271.156 49.5269 271.123 49.5269V49.3275C271.156 49.3275 271.156 49.288 271.175 49.288C271.192 49.2473 271.192 49.2074 271.192 49.167C271.192 49.167 271.192 49.1276 271.156 49.0868C271.156 49.0478 271.14 49.0478 271.123 49.0478L271.106 48.8479L271.052 47.3705C271.052 47.3705 271.035 47.3306 271.017 47.3306C271 47.3306 270.984 47.3705 270.984 47.3705L270.932 48.8479V49.0478C270.914 49.0478 270.879 49.0478 270.879 49.0868C270.862 49.1276 270.845 49.167 270.845 49.167C270.845 49.2074 270.862 49.2473 270.879 49.288C270.879 49.288 270.896 49.3275 270.914 49.3275V49.5269C270.879 49.5269 270.862 49.5668 270.845 49.6067C270.826 49.6462 270.81 49.6869 270.81 49.726C270.81 49.7663 270.826 49.8062 270.845 49.8062C270.845 49.847 270.879 49.8864 270.896 49.8864L270.879 50.1258C270.81 50.1666 270.706 50.2459 270.602 50.3252C270.48 50.4059 270.393 50.5247 270.324 50.6843C270.289 50.8053 270.289 50.9241 270.289 51.0039C270.289 51.124 270.306 51.2042 270.324 51.2441C269.977 51.4834 269.543 51.7636 269.16 52.1625C268.763 52.5211 268.415 52.9608 268.242 53.4005C267.88 54.3584 268.07 55.3158 268.209 55.7954H267.913C267.756 55.7954 267.653 55.9545 267.653 56.1146C267.653 56.2746 267.756 56.3947 267.913 56.3947H268.122V57.1526C268.122 57.1934 268.122 57.2329 268.103 57.2728L268.122 57.3521V59.1898C267.897 59.2288 267.722 59.4686 267.722 59.7483C267.722 60.0679 267.965 60.3471 268.242 60.3471H268.486L268.451 69.5703H268.242C267.931 69.5703 267.653 69.8496 267.653 70.2485C267.653 70.608 267.931 70.8881 268.242 70.8881H268.433L268.381 82.2673H267.825C267.464 82.2673 267.167 82.5873 267.167 83.0252C267.167 83.4242 267.464 83.7832 267.825 83.7832H268.365L268.346 95.6424H267.357V90.8907H265.102V89.7334H265.19C265.398 89.7334 265.589 89.5326 265.589 89.2928C265.589 89.0144 265.398 88.8145 265.19 88.8145H264.982C265.38 87.7764 266.368 84.4215 265.085 81.0279C264.566 79.6707 263.543 78.4332 262.38 77.3157C261.252 76.2377 259.987 75.318 258.964 74.6398C259.015 74.4794 259.05 74.2409 259.084 73.9608C259.084 73.6815 259.049 73.3229 258.91 72.963C258.772 72.6035 258.477 72.244 258.147 71.9652C257.853 71.6851 257.523 71.4453 257.281 71.2862L257.263 70.6882C257.332 70.6071 257.384 70.5685 257.42 70.4475C257.454 70.3682 257.489 70.2476 257.489 70.1279C257.489 70.0074 257.454 69.8881 257.42 69.7693C257.35 69.6891 257.299 69.6102 257.211 69.5694L257.194 69.0114C257.246 68.9706 257.281 68.8908 257.315 68.8501C257.35 68.7707 257.384 68.6909 257.384 68.5708C257.384 68.4914 257.35 68.3718 257.315 68.2907C257.28 68.2122 257.211 68.1719 257.16 68.1324L257.141 67.5336L256.968 63.2216C256.968 63.1414 256.934 63.102 256.882 63.102C256.829 63.1418 256.796 63.1817 256.796 63.2216L256.621 67.5336L256.605 68.1324C256.551 68.1719 256.5 68.2126 256.465 68.2907C256.412 68.3718 256.395 68.4914 256.395 68.5708C256.395 68.6905 256.412 68.7707 256.448 68.8501C256.484 68.8908 256.518 68.9706 256.569 69.0114L256.551 69.5694C256.483 69.6102 256.412 69.6891 256.361 69.7693C256.309 69.8881 256.274 70.0074 256.274 70.1279C256.274 70.2472 256.309 70.3682 256.343 70.4475C256.378 70.5681 256.447 70.6071 256.517 70.6882L256.483 71.2862C256.24 71.4453 255.926 71.6851 255.614 71.9652C255.302 72.2445 254.99 72.6035 254.852 72.963C254.713 73.3229 254.679 73.6819 254.695 73.9608C254.713 74.2409 254.747 74.4794 254.799 74.6398C253.777 75.318 252.528 76.2377 251.383 77.3157C250.22 78.4332 249.198 79.6707 248.694 81.0279C247.395 84.4215 248.4 87.7764 248.781 88.8145H248.574C248.365 88.8145 248.191 89.0144 248.191 89.2928C248.191 89.5326 248.365 89.7334 248.574 89.7334H248.781V90.8907H246.406V95.6424H244.689V92.0485C244.897 91.8889 245.071 91.6496 245.071 91.3304C245.071 90.8907 244.793 90.4909 244.446 90.4125V85.9791H244.776C245 85.9791 245.191 85.7401 245.191 85.5017C245.191 85.2207 245 85.0225 244.776 85.0225H244.377C244.603 84.2229 244.896 82.7052 244.306 81.1489C244.028 80.4291 243.473 79.7505 242.85 79.153C242.225 78.5533 241.549 78.0732 240.977 77.7151C241.013 77.6353 241.047 77.4744 241.047 77.3547C241.047 77.1566 241.047 76.9966 240.959 76.7967C240.872 76.5976 240.734 76.3977 240.543 76.2386C240.387 76.1189 240.214 75.958 240.075 75.8791V75.5595C240.11 75.5188 240.144 75.4797 240.144 75.4398C240.179 75.3991 240.196 75.3193 240.196 75.2803C240.196 75.2001 240.179 75.1194 240.144 75.0813C240.11 75.0002 240.075 74.9611 240.04 74.9611V74.6416C240.058 74.6416 240.075 74.6017 240.093 74.5613C240.111 74.5223 240.128 74.4807 240.128 74.4026C240.128 74.3623 240.111 74.3224 240.093 74.283C240.075 74.2426 240.04 74.2019 240.005 74.1628V73.8437L239.902 71.5282C239.902 71.4887 239.884 71.4471 239.867 71.4471C239.834 71.4471 239.814 71.4887 239.814 71.5282L239.728 73.8437L239.711 74.1628C239.675 74.2023 239.659 74.2431 239.625 74.283C239.607 74.3229 239.589 74.3627 239.589 74.4026C239.589 74.4811 239.607 74.5223 239.625 74.5613C239.642 74.6017 239.659 74.6416 239.693 74.6416V74.9611C239.642 74.9611 239.607 75.0006 239.589 75.0813C239.555 75.1194 239.52 75.2001 239.52 75.2803C239.52 75.3193 239.555 75.3991 239.571 75.4398C239.589 75.4802 239.625 75.5192 239.659 75.5595L239.642 75.8791C239.52 75.9585 239.347 76.1189 239.173 76.2386C239.001 76.3977 238.844 76.5976 238.756 76.7967C238.689 76.9966 238.67 77.1965 238.689 77.3547C238.689 77.4744 238.704 77.6357 238.723 77.7151C238.185 78.0732 237.507 78.5533 236.885 79.153C236.258 79.7501 235.704 80.4291 235.426 81.1489C234.837 82.7052 235.114 84.2229 235.357 85.0225H234.871C234.647 85.0225 234.455 85.2207 234.455 85.5017C234.455 85.7401 234.647 85.9791 234.871 85.9791H235.219V90.4125C234.871 90.4909 234.595 90.8907 234.595 91.3304C234.595 91.6496 234.751 91.8885 234.941 92.0485V95.6424H234.915V95.4881C233.429 83.6162 227.055 73.7718 211.138 66.4091C202.951 62.6202 198.892 57.4714 196.905 53.6912C198.81 52.7324 200.143 50.5471 200.143 48.0005C200.143 44.966 198.252 42.4444 195.754 41.9017L195.665 39.1626C196.355 38.8168 196.839 38.0272 196.839 37.1058C196.839 36.1268 196.291 35.3027 195.53 34.9958L195.319 28.4244C197.738 29.0224 200.316 28.9202 202.827 27.9457C206.598 26.4797 209.468 23.3869 211.078 19.5743C209.735 20.8978 208.161 21.949 206.385 22.6391C198.95 25.5236 190.881 20.9219 188.371 12.3646C187.128 8.1237 187.475 3.71882 189.045 0C184.768 4.21814 182.9 11.1459 184.814 17.6708C186.402 23.0923 190.227 26.9177 194.706 28.2653L194.358 34.9559C193.541 35.2233 192.938 36.0795 192.938 37.1058C192.938 38.0386 193.433 38.8382 194.137 39.1767L193.997 41.8565C191.374 42.2787 189.353 44.8639 189.353 48.0001C189.353 50.6575 190.806 52.9183 192.845 53.8047C190.837 57.5744 186.776 62.6583 178.672 66.4087C163.842 73.2685 157.293 82.2826 155.266 93.0844V92.0481C155.456 91.8885 155.613 91.6491 155.613 91.33C155.613 90.8903 155.336 90.4905 154.988 90.412V85.9786H155.336C155.56 85.9786 155.751 85.7397 155.751 85.5012C155.751 85.2202 155.561 85.0221 155.336 85.0221H154.851C155.094 84.2225 155.37 82.7048 154.781 81.1485C154.503 80.4287 153.949 79.75 153.323 79.1525C152.7 78.5528 152.022 78.0728 151.484 77.7146C151.502 77.6348 151.519 77.474 151.519 77.3543C151.537 77.196 151.519 76.9961 151.451 76.7962C151.364 76.5972 151.206 76.3973 151.034 76.2382C150.861 76.1185 150.687 75.9576 150.566 75.8787L150.548 75.5591C150.583 75.5183 150.618 75.4793 150.636 75.4394C150.652 75.3987 150.687 75.3189 150.687 75.2798C150.687 75.1996 150.652 75.119 150.618 75.0808C150.6 74.9997 150.566 74.9607 150.514 74.9607V74.6411C150.548 74.6411 150.566 74.6012 150.583 74.5609C150.6 74.5219 150.618 74.4802 150.618 74.4022C150.618 74.3619 150.6 74.322 150.583 74.2825C150.548 74.2422 150.532 74.2014 150.497 74.1624L150.48 73.8433L150.393 71.5277C150.393 71.4883 150.374 71.4466 150.341 71.4466C150.323 71.4466 150.305 71.4883 150.305 71.5277L150.203 73.8433V74.1624C150.167 74.2019 150.132 74.2426 150.115 74.2825C150.097 74.3224 150.08 74.3623 150.08 74.4022C150.08 74.4807 150.097 74.5219 150.115 74.5609C150.132 74.6012 150.15 74.6411 150.167 74.6411V74.9607C150.132 74.9607 150.097 75.0002 150.064 75.0808C150.028 75.119 150.012 75.1996 150.012 75.2798C150.012 75.3189 150.028 75.3987 150.064 75.4394C150.064 75.4798 150.097 75.5188 150.132 75.5591V75.8787C149.993 75.958 149.82 76.1185 149.664 76.2382C149.473 76.3973 149.335 76.5972 149.248 76.7962C149.161 76.9961 149.161 77.1561 149.161 77.3543C149.161 77.474 149.195 77.6353 149.23 77.7146C148.659 78.0728 147.983 78.5528 147.358 79.1525C146.733 79.7496 146.179 80.4287 145.902 81.1485C145.311 82.7048 145.605 84.2225 145.831 85.0221H145.432C145.208 85.0221 145.016 85.2202 145.016 85.5012C145.016 85.7397 145.207 85.9786 145.432 85.9786H145.762V90.412C145.415 90.4905 145.137 90.8903 145.137 91.33C145.137 91.6491 145.311 91.888 145.519 92.0481V95.6419H143.802V90.8903H141.426V89.7329H141.634C141.843 89.7329 142.017 89.5322 142.017 89.2924C142.017 89.014 141.843 88.8141 141.634 88.8141H141.426C141.808 87.776 142.813 84.4211 141.514 81.0275C141.01 79.6703 139.988 78.4327 138.824 77.3153C137.681 76.2373 136.431 75.3175 135.41 74.6394C135.461 74.4789 135.495 74.2404 135.512 73.9603C135.529 73.681 135.495 73.3224 135.355 72.9625C135.218 72.6031 134.906 72.2436 134.594 71.9648C134.281 71.6846 133.968 71.4449 133.725 71.2857L133.691 70.6878C133.76 70.6067 133.83 70.5681 133.865 70.4471C133.899 70.3677 133.934 70.2472 133.934 70.1275C133.934 70.007 133.899 69.8877 133.848 69.7689C133.796 69.6887 133.725 69.6098 133.657 69.569L133.639 69.0109C133.691 68.9702 133.725 68.8904 133.761 68.8496C133.796 68.7703 133.814 68.6905 133.814 68.5704C133.814 68.491 133.796 68.3714 133.743 68.2903C133.709 68.2118 133.657 68.1714 133.604 68.132L133.588 67.5332L133.413 63.2212C133.413 63.1813 133.38 63.141 133.327 63.1015C133.275 63.1015 133.241 63.1414 133.241 63.2212L133.068 67.5332L133.049 68.132C132.998 68.1714 132.928 68.2122 132.894 68.2903C132.859 68.3714 132.825 68.491 132.825 68.5704C132.825 68.69 132.859 68.7703 132.894 68.8496C132.928 68.8904 132.964 68.9702 133.016 69.0109L132.998 69.569C132.911 69.6098 132.859 69.6887 132.789 69.7689C132.755 69.8877 132.72 70.007 132.72 70.1275C132.72 70.2467 132.755 70.3677 132.789 70.4471C132.825 70.5676 132.878 70.6067 132.946 70.6878L132.929 71.2857C132.686 71.4449 132.356 71.6846 132.062 71.9648C131.732 72.244 131.437 72.6031 131.299 72.9625C131.16 73.3224 131.126 73.6815 131.126 73.9603C131.16 74.2404 131.195 74.4789 131.245 74.6394C130.223 75.3175 128.958 76.2373 127.829 77.3153C126.667 78.4327 125.644 79.6703 125.124 81.0275C123.842 84.4211 124.83 87.776 125.228 88.8141H125.019C124.812 88.8141 124.621 89.014 124.621 89.2924C124.621 89.5322 124.812 89.7329 125.019 89.7329H125.108V90.8903H122.852V95.6419H121.863L121.845 83.7827H122.385C122.747 83.7827 123.043 83.4237 123.043 83.0248C123.043 82.5868 122.746 82.2668 122.385 82.2668H121.829L121.777 70.8877H121.968C122.279 70.8877 122.557 70.6076 122.557 70.2481C122.557 69.8491 122.279 69.5699 121.968 69.5699H121.76L121.724 60.3467H121.968C122.246 60.3467 122.488 60.0675 122.488 59.7479C122.488 59.4682 122.314 59.2284 122.089 59.1894V57.3517L122.107 57.2723C122.089 57.2324 122.089 57.193 122.089 57.1522V56.3942H122.297C122.454 56.3942 122.557 56.2741 122.557 56.1141C122.557 55.9541 122.454 55.795 122.297 55.795H122.001C122.14 55.3154 122.33 54.3579 121.968 53.4001C121.795 52.9604 121.447 52.5207 121.05 52.1621C120.667 51.7631 120.234 51.483 119.886 51.2437C119.904 51.2038 119.922 51.124 119.922 51.0034C119.922 50.9236 119.922 50.8053 119.886 50.6838C119.817 50.5243 119.731 50.405 119.609 50.3248C119.505 50.2455 119.401 50.1661 119.332 50.1253L119.314 49.886C119.332 49.886 119.365 49.8465 119.365 49.8057C119.384 49.8057 119.401 49.7659 119.401 49.7255C119.401 49.6861 119.384 49.6453 119.365 49.6063C119.349 49.5664 119.332 49.5265 119.297 49.5265V49.327C119.314 49.327 119.332 49.2876 119.332 49.2876C119.349 49.2468 119.365 49.2069 119.365 49.1666C119.365 49.1666 119.349 49.1271 119.332 49.0864C119.332 49.0473 119.297 49.0473 119.279 49.0473V48.8474L119.227 47.3701C119.227 47.3701 119.211 47.3302 119.194 47.3302C119.175 47.3302 119.159 47.3701 119.159 47.3701L119.106 48.8474L119.088 49.0473C119.071 49.0473 119.055 49.0473 119.055 49.0864C119.02 49.1271 119.02 49.1666 119.02 49.1666C119.02 49.2069 119.02 49.2468 119.036 49.2876C119.055 49.2876 119.055 49.327 119.088 49.327V49.5265C119.055 49.5265 119.02 49.5664 119.02 49.6063C118.985 49.6458 118.985 49.6865 118.985 49.7255C118.985 49.7659 118.985 49.8057 119.02 49.8057C119.02 49.8465 119.036 49.886 119.055 49.886V50.1253C118.968 50.1661 118.863 50.2455 118.759 50.3248C118.638 50.4055 118.552 50.5243 118.5 50.6838C118.464 50.8048 118.447 50.9236 118.447 51.0034C118.447 51.1235 118.464 51.2038 118.482 51.2437C118.135 51.483 117.702 51.7631 117.32 52.1621C116.939 52.5207 116.591 52.9604 116.417 53.4001C116.037 54.3579 116.227 55.3154 116.365 55.795H116.122C115.967 55.795 115.862 55.9541 115.862 56.1141C115.862 56.2741 115.967 56.3942 116.122 56.3942H116.332V59.1894C116.106 59.2284 115.932 59.4682 115.932 59.7479C115.932 60.0675 116.175 60.3467 116.452 60.3467H116.695L116.662 69.5699H116.452C116.14 69.5699 115.862 69.8491 115.862 70.2481C115.862 70.6076 116.14 70.8877 116.452 70.8877H116.642L116.591 82.2668H116.036C115.671 82.2668 115.377 82.5868 115.377 83.0248C115.377 83.4237 115.671 83.7827 116.036 83.7827H116.591L116.555 104.346H114.684V103.188H114.874C115.1 103.188 115.274 102.988 115.274 102.748C115.274 102.469 115.1 102.269 114.874 102.269H114.668C115.065 101.231 116.071 97.8773 114.77 94.4833C114.267 93.1252 113.226 91.8876 112.064 90.7706C110.937 89.6909 109.689 88.7742 108.648 88.0947C108.7 87.9351 108.753 87.6949 108.753 87.4569C108.769 87.1364 108.735 86.7778 108.614 86.4188C108.457 86.0593 108.162 85.6998 107.85 85.421C107.538 85.1413 107.226 84.9011 106.983 84.7415L106.948 84.144C107.018 84.0633 107.069 84.0234 107.105 83.9033C107.157 83.8231 107.192 83.7034 107.192 83.5842C107.192 83.4636 107.157 83.3439 107.087 83.2243C107.053 83.1449 106.983 83.0642 106.915 83.0244L106.88 82.4654C106.932 82.4255 106.983 82.3466 107.001 82.3058C107.053 82.2256 107.053 82.1467 107.053 82.0266C107.053 81.9472 107.036 81.8258 106.983 81.7473C106.948 81.6671 106.915 81.6277 106.844 81.5878L106.828 80.9894L106.655 76.677C106.655 76.6367 106.619 76.5967 106.566 76.5564C106.532 76.5564 106.498 76.5972 106.498 76.677L106.325 80.9894L106.289 81.5878C106.237 81.6277 106.186 81.6675 106.151 81.7473C106.116 81.8258 106.082 81.9472 106.082 82.0266C106.082 82.1463 106.098 82.2256 106.151 82.3058C106.169 82.3466 106.222 82.4255 106.255 82.4654L106.237 83.0244C106.151 83.0642 106.098 83.1449 106.047 83.2243C105.995 83.3439 105.96 83.4636 105.96 83.5842C105.96 83.703 105.976 83.8231 106.047 83.9033C106.082 84.023 106.116 84.0633 106.186 84.144L106.169 84.7415C105.925 84.9011 105.596 85.1413 105.302 85.421C104.972 85.7002 104.677 86.0593 104.537 86.4188C104.417 86.7778 104.382 87.1364 104.382 87.4569C104.382 87.6949 104.451 87.9351 104.486 88.0947C103.463 88.7746 102.198 89.6913 101.069 90.7706C99.9067 91.8876 98.8844 93.1252 98.3809 94.4833C97.0803 97.8773 98.0683 101.231 98.4834 102.269H98.2594C98.034 102.269 97.8607 102.469 97.8607 102.748C97.8607 102.988 98.034 103.188 98.2594 103.188H98.3455V104.346C96.4904 100.653 90.2184 100.106 88.1168 105.206L88.089 99.5348H88.2943C88.6283 99.5348 88.9017 99.2126 88.9017 98.8303C88.9017 98.4458 88.6283 98.1293 88.2943 98.1293H88.0791L88.0303 88.3696H88.2947C88.5891 88.3696 88.8339 88.0916 88.8339 87.7488C88.8339 87.4498 88.6523 87.2017 88.4131 87.1386V84.2167H88.6477C88.7959 84.2167 88.9227 84.069 88.9227 83.8902C88.9227 83.7152 88.7959 83.5728 88.6477 83.5728H88.3293C88.4817 83.0489 88.6778 82.045 88.2855 81.0231C88.0989 80.5492 87.7371 80.0986 87.3151 79.7027C86.9129 79.3195 86.462 78.9921 86.0998 78.7549C86.1142 78.6878 86.1291 78.6085 86.134 78.512C86.1382 78.3937 86.1291 78.2687 86.08 78.1464C86.0308 78.0101 85.9234 77.886 85.805 77.7848C85.698 77.6888 85.5799 77.6099 85.4965 77.5537L85.4915 77.3332C85.5113 77.3109 85.5311 77.2824 85.541 77.2539C85.5601 77.2149 85.5704 77.1763 85.5704 77.1364C85.5704 77.0899 85.5601 77.0399 85.541 77.0062C85.5212 76.972 85.5014 76.9492 85.4721 76.9269L85.4622 76.7353C85.4812 76.7173 85.4965 76.6954 85.5068 76.6665C85.5212 76.645 85.5311 76.6103 85.5311 76.577C85.5311 76.5433 85.5212 76.5038 85.5014 76.4762C85.4915 76.453 85.4721 76.4306 85.4523 76.4074L85.4428 76.204L85.3841 74.6591C85.3841 74.642 85.3746 74.6258 85.3544 74.6258C85.3342 74.6258 85.3247 74.6367 85.3201 74.6591L85.2615 76.204L85.2562 76.4074C85.2322 76.431 85.2127 76.453 85.2021 76.4762C85.1838 76.5038 85.1781 76.5433 85.1781 76.577C85.1781 76.6103 85.1838 76.645 85.1979 76.6665C85.2074 76.6954 85.2272 76.7173 85.2364 76.7353L85.2322 76.9269C85.2074 76.9492 85.1781 76.972 85.1682 77.0062C85.1442 77.0399 85.1339 77.0895 85.1339 77.1364C85.1339 77.1763 85.1438 77.2149 85.1636 77.2539C85.1731 77.2819 85.1979 77.3109 85.2177 77.3332L85.2074 77.5537C85.1194 77.6099 85.0014 77.6892 84.8989 77.7848C84.7808 77.886 84.6734 78.0105 84.6293 78.1464C84.5752 78.2687 84.5653 78.3937 84.5706 78.512C84.5706 78.6085 84.5897 78.6874 84.6095 78.7549C84.2419 78.9921 83.7914 79.3195 83.3839 79.7027C82.9718 80.0981 82.6 80.5492 82.4188 81.0231C82.0314 82.045 82.218 83.0489 82.3746 83.5728H82.1099C81.953 83.5728 81.8261 83.7148 81.8261 83.8902C81.8261 84.069 81.953 84.2167 82.1099 84.2167H82.3251V87.1386C82.0897 87.2065 81.9134 87.4551 81.9134 87.7488C81.9134 88.0916 82.164 88.3696 82.4622 88.3696H82.7166L82.6686 98.1293H82.4622C82.124 98.1293 81.8444 98.4458 81.8444 98.8303C81.8444 99.2126 82.1236 99.5348 82.4622 99.5348H82.6686L82.6191 108.219C80.1991 102.453 75.2403 98.3726 69.4101 97.8878V97.2065C69.4101 97.0974 69.3728 96.9904 69.3046 96.9119C69.2357 96.8335 69.1458 96.7905 69.0487 96.7905H68.7516L68.5185 89.807C69.8356 89.1749 70.857 87.819 71.1217 86.0838C71.4352 84.0243 70.5973 82.0419 69.1473 81.0021C69.767 82.0349 70.045 83.3391 69.842 84.6775C69.4322 87.3797 67.189 89.1885 64.8444 88.7155C64.2819 88.6024 63.7681 88.3691 63.3099 88.0434C63.9467 89.1043 64.9347 89.8802 66.1252 90.1209C66.8633 90.2708 67.5824 90.1718 68.2455 89.9114L68.0074 96.7901H67.7172C67.5131 96.7901 67.3451 96.983 67.3451 97.2192V97.8729C61.0579 98.2788 55.7529 102.865 53.486 109.265C53.1695 108.848 52.7978 108.451 52.4055 108.072C51.6442 107.344 50.801 106.723 50.0975 106.264C50.1322 106.157 50.168 105.995 50.168 105.833C50.179 105.617 50.1562 105.374 50.0739 105.132C49.968 104.889 49.7689 104.646 49.5582 104.457C49.3472 104.268 49.1366 104.106 48.9721 103.998L48.9485 103.594C48.9953 103.54 49.0304 103.513 49.0547 103.432C49.0898 103.379 49.1134 103.296 49.1134 103.216C49.1134 103.135 49.0898 103.054 49.0422 102.972C49.0197 102.919 48.9721 102.865 48.926 102.838L48.902 102.46C48.9371 102.433 48.9721 102.379 48.9847 102.352C49.0197 102.298 49.0197 102.244 49.0197 102.163C49.0197 102.109 49.0071 102.027 48.9721 101.975C48.9485 101.92 48.926 101.894 48.878 101.866L48.867 101.461L48.7501 98.548C48.7501 98.5213 48.7261 98.4949 48.6903 98.4669C48.6674 98.4669 48.6442 98.4945 48.6442 98.548L48.5269 101.461L48.5029 101.866C48.4682 101.894 48.4339 101.92 48.41 101.975C48.386 102.027 48.3627 102.109 48.3627 102.163C48.3627 102.244 48.3742 102.298 48.41 102.352C48.4218 102.379 48.4576 102.434 48.48 102.46L48.4682 102.838C48.41 102.865 48.3742 102.919 48.3395 102.972C48.3048 103.054 48.2808 103.135 48.2808 103.216C48.2808 103.297 48.2923 103.379 48.3395 103.432C48.3627 103.513 48.386 103.54 48.4339 103.594L48.4218 103.998C48.2569 104.106 48.0344 104.268 47.8364 104.457C47.6128 104.646 47.4136 104.889 47.3192 105.132C47.2377 105.374 47.2144 105.617 47.2144 105.833C47.2144 105.995 47.2609 106.157 47.2849 106.264C46.5936 106.723 45.7386 107.344 44.9761 108.072C44.19 108.828 43.4992 109.664 43.159 110.582C42.9423 111.147 42.8208 111.71 42.763 112.249C40.482 111.228 38.5526 109.935 37.0086 108.423C37.0725 108.278 37.119 108.122 37.119 107.948C37.119 107.519 36.8916 107.15 36.5671 106.987L36.3363 102.838H36.0659L35.834 106.987C35.5095 107.15 35.2856 107.519 35.2856 107.948C35.2856 108.122 35.3286 108.278 35.3949 108.423C33.7088 110.065 31.544 111.478 29.004 112.529C25.101 114.137 22.4967 117.016 22.4967 120.305C22.4967 121.247 22.7119 122.159 23.1072 123.012H21.5796V115.439H21.6702C21.9296 115.439 22.1406 115.198 22.1406 114.898V114.592C22.1406 114.296 21.9296 114.053 21.6702 114.053H21.0551C21.0807 113.852 21.0982 113.654 21.0982 113.44C21.0982 111.997 20.4336 110.728 19.4376 110.021C18.8184 109.583 18.2905 109.014 17.8746 108.344C17.9538 108.259 18.0003 108.137 18.0003 108.005C18.0003 107.817 17.9031 107.651 17.7596 107.581L17.6567 105.755H17.5387L17.4374 107.581C17.2938 107.651 17.1955 107.817 17.1955 108.005C17.1955 108.138 17.2439 108.259 17.3223 108.344C16.9019 109.011 16.3729 109.584 15.7612 110.021C14.7641 110.727 14.0984 111.997 14.0984 113.44C14.0984 113.654 14.1151 113.852 14.1448 114.053H13.508C13.2494 114.053 13.0407 114.297 13.0407 114.592V114.898C13.0407 115.199 13.2494 115.439 13.508 115.439H13.6151V123.381C13.0872 121.28 11.7115 119.596 9.93329 118.853C9.93558 118.819 9.94205 118.786 9.94205 118.752C9.94205 117.741 9.38219 116.892 8.60067 116.565L8.31502 115.568C8.37101 115.477 8.41024 115.373 8.41024 115.255C8.41024 115.026 8.2876 114.832 8.11888 114.742L7.94102 111.596C7.94102 111.581 7.92616 111.571 7.91131 111.571C7.90141 111.571 7.88808 111.581 7.88808 111.596L7.71022 114.742C7.54264 114.832 7.42115 115.025 7.42115 115.255C7.42115 115.373 7.45847 115.476 7.51141 115.566L7.22767 116.565C6.44729 116.892 5.88857 117.744 5.88857 118.752C5.88857 118.786 5.89542 118.819 5.89542 118.853C3.61332 119.807 1.97181 122.303 1.97181 125.263C1.97181 125.972 2.08988 126.644 2.26431 127.288H0.211484V128.322H0.000488281V167H390V128.322V127.288H387.948V127.288ZM374.799 118.893C374.799 117.825 375.073 116.929 375.446 116.659C375.817 116.928 376.088 117.825 376.088 118.893V123.084H374.799V118.893ZM370.982 118.447C370.982 117.269 371.672 116.278 372.614 115.974C373.552 116.277 374.243 117.269 374.243 118.447V123.084H371.77V123.012H370.982V118.447ZM369.147 118.893C369.147 117.825 369.419 116.929 369.79 116.659C370.164 116.928 370.436 117.825 370.436 118.893V123.012H369.146V118.893H369.147ZM303.907 85.4578C303.686 84.7349 304.721 84.7704 304.838 84.2172C304.961 84.7704 305.995 84.7349 305.77 85.4578C305.74 85.5709 305.706 85.6604 305.785 85.7735C305.858 85.8866 305.848 85.9769 305.848 85.9769V87.1219H303.838V85.9769C303.838 85.9769 303.819 85.8866 303.897 85.7735C303.976 85.6604 303.946 85.5709 303.907 85.4578ZM269.925 58.8575V56.7914C269.925 55.9883 270.394 55.3141 271.036 55.1071C271.674 55.3141 272.146 55.9887 272.146 56.7914V58.9057H269.924L269.925 58.8575ZM241.931 85.3539C241.931 84.2852 242.205 83.39 242.579 83.119C242.949 83.3895 243.22 84.2852 243.22 85.3539V88.6458H241.931V85.3539ZM238.181 88.5708V85.5354C238.181 84.3575 238.871 83.3659 239.813 83.062C240.751 83.3654 241.443 84.3575 241.443 85.5354V88.6414H238.179L238.181 88.5708ZM236.279 85.3539C236.279 84.2852 236.551 83.39 236.922 83.119C237.295 83.3895 237.568 84.2852 237.568 85.3539V88.6558H236.278L236.279 85.3539ZM152.643 85.3539C152.643 84.2852 152.915 83.39 153.289 83.119C153.66 83.3895 153.933 84.2852 153.933 85.3539V88.6558H152.643V85.3539ZM148.768 85.5354C148.768 84.3575 149.46 83.3659 150.397 83.062C151.34 83.3654 152.03 84.3575 152.03 85.5354V88.5708L152.031 88.6414H148.767V85.5354H148.768ZM146.991 85.3539C146.991 84.2852 147.262 83.39 147.632 83.119C148.006 83.3895 148.281 84.2852 148.281 85.3539V88.6458H146.991V85.3539ZM118.066 56.7914C118.066 55.9883 118.537 55.3141 119.175 55.1071C119.817 55.3141 120.287 55.9887 120.287 56.7914V58.8575L120.288 58.9053H118.066V56.7914ZM84.4415 85.4578C84.2164 84.7349 85.2508 84.7704 85.3731 84.2172C85.4904 84.7704 86.5244 84.7349 86.3047 85.4578C86.2651 85.5709 86.2353 85.6604 86.3138 85.7735C86.3923 85.8866 86.3732 85.9769 86.3732 85.9769V87.1219H84.363V85.9769C84.363 85.9769 84.3531 85.8866 84.4266 85.7735C84.5055 85.6604 84.4716 85.5709 84.4415 85.4578ZM19.7754 118.893C19.7754 117.825 20.047 116.929 20.4214 116.659C20.7923 116.928 21.0647 117.825 21.0647 118.893V123.012H19.7754V118.893ZM15.968 118.447C15.968 117.269 16.66 116.278 17.5973 115.974C18.5403 116.277 19.2301 117.269 19.2301 118.447V123.012H18.4405V123.084H15.9676L15.968 118.447ZM14.1231 118.893C14.1231 117.825 14.3947 116.929 14.7645 116.659C15.1389 116.928 15.4127 117.825 15.4127 118.893V123.084H14.1231V118.893Z" fill="#00133F"/>
</g>
<path fill-rule="evenodd" clip-rule="evenodd" d="M123.667 109H252.333C253.806 109 255 110.194 255 111.667V112.333C255 113.806 253.806 115 252.333 115H123.667C122.194 115 121.001 113.806 121.001 112.333V111.667C121.001 110.194 122.194 109 123.667 109Z" fill="white" fill-opacity="0.25098"/>
</svg>
